<?xml version="1.0" encoding="UTF-8" standalone="no"?>
<!-- Created with Inkscape (http://www.inkscape.org/) -->

<svg
   version="1.1"
   id="svg1"
   width="294.11841"
   height="290.7124"
   viewBox="0 0 294.11841 290.71241"
   xmlns="http://www.w3.org/2000/svg"
   xmlns:svg="http://www.w3.org/2000/svg">
  <defs
     id="defs1" />
  <g
     id="g1"
     transform="translate(-1047.2049,-374.54113)">
    <g
       id="group-R5">
      <g
         id="g336"
         transform="translate(-69.499654,21.511798)">
        <path
           id="path201"
           d="m 9466.49,6473.21 c -2.12,0.26 -4.08,0.6 -6.17,0.43 -12.38,-25.08 -24.98,-70.18 -49.72,-86.14 -19.83,-12.8 -47.71,-10.2 -70.15,-5.26 -9.66,2.13 -19.17,8.6 -29.8,8.47 -13.57,-0.17 -31.31,-10.72 -42.45,-18.22 -11.06,-7.45 -46.43,-42.32 -34.37,-55.89 20.54,13.02 42.12,22.73 65.93,26.6 -21.79,-0.72 -50.51,-42.05 -35.87,-60.94 21.58,9.18 39.84,26.28 61.8,33.71 -19.04,-22 -17.59,-43.46 -7.15,-68.88 19.91,-0.62 21.14,40.26 34.86,50.82 19.48,15 50.79,-5.39 70.28,-9.85 60.9,-13.95 81.24,89.64 114.79,119.89 l -71.98,65.26"
           style="fill:#826f5e;fill-opacity:1;fill-rule:nonzero;stroke:none"
           transform="matrix(0.13333333,0,0,-0.13333333,0,1370.08)" />
        <path
           id="path202"
           d="m 9599.99,6313.12 c -16.06,-72.02 34.6,-181.27 100.82,-233.41 60.04,-47.26 164.75,-110.42 250.14,-78.44 70.35,119.88 -55.47,249.47 -35.17,381.09 l -315.79,-69.24"
           style="fill:#826f5e;fill-opacity:1;fill-rule:nonzero;stroke:none"
           transform="matrix(0.13333333,0,0,-0.13333333,0,1370.08)" />
        <path
           id="path203"
           d="m 8740.71,6573.71 c 21.2,2.7 36.1,63 27.9,78.25 -2.72,5.06 -34.02,11.11 -39.94,11.41 -34.45,1.76 -32.29,-22.01 -22.73,-45.23 4.41,-10.73 18.95,-46.45 34.77,-44.43"
           style="fill:#ffffff;fill-opacity:1;fill-rule:nonzero;stroke:none"
           transform="matrix(0.13333333,0,0,-0.13333333,0,1370.08)" />
        <path
           id="path204"
           d="m 8384.23,6704.76 c 22.34,-12.31 79.13,35.33 81.96,55.8 0.94,6.8 -24.99,34.65 -30.47,39.1 -31.97,25.94 -46.62,1.51 -53.75,-27.6 -3.29,-13.46 -14.41,-58.11 2.26,-67.3"
           style="fill:#ffffff;fill-opacity:1;fill-rule:nonzero;stroke:none"
           transform="matrix(0.13333333,0,0,-0.13333333,0,1370.08)" />
        <path
           id="path205"
           d="m 10576.4,6975.03 c -12.1,84.01 -28.4,164.51 -73.3,236.34 -49.3,79.08 -116.8,135.36 -185,197.43 -49.7,45.2 -120.3,82.7 -161.5,135.71 -9.1,11.83 -15.1,17.97 -18.4,32.42 -3.1,13.25 9.5,28.37 0.4,40.58 -14.4,19.26 -56.7,7.85 -73.5,-3.37 -50,-33.45 -46.3,-108.2 -22.5,-155.64 30,-59.8 65.8,-87.62 119.1,-123.33 30.3,-20.27 89.4,-85.71 77.2,-125.98 -23.4,-77.09 -153.7,-24.8 -204.4,-25.51 -55.71,-0.79 -143.61,-11.77 -188.6,-48.28 -65.92,-53.51 -106.48,-135.99 -166.05,-196.22 -92.05,-93.09 -145.01,105.07 -169.56,166 -18.87,46.81 -34.83,103.21 -73.32,137.93 -41.18,37.14 -95.28,32.47 -147.08,30.94 -49.79,-1.46 -111.17,-1.7 -160.13,5.25 -63.41,8.99 -115.38,49.43 -182.84,43.93 -48.69,-3.96 -57.22,-41.23 -72.49,-78.47 -19.85,-48.39 -54.1,-92.04 -78.15,-138.53 -6.73,-13.01 -9.83,-31.63 -20.07,-40.36 -11.34,-9.66 -35.4,-11.99 -49.53,-14.48 -20.34,-3.59 -40.16,1.13 -60.3,-0.49 -13.81,-1.11 -28.45,-6.38 -41.98,-9.42 -30.67,-6.91 -61.38,-13.95 -91.3,-23.69 -57.2,-18.62 -116.72,-48.37 -143.58,-105.48 -18.34,-39 -11.56,-87.43 -1.84,-127.81 18.91,-78.6 128.1,-112.86 197.39,-128.92 75.12,-17.41 154.63,-41.2 225,-2.42 31.88,17.57 58.04,47.01 91.34,63.18 29.38,14.27 71.14,16.17 105.19,14.29 3.3,-0.18 6.58,-0.53 9.86,-0.82 -2.68,-6.43 -4.61,-13.1 -10.16,-18.83 -13.45,-13.91 -37.67,-23.64 -53.9,-34.53 -36.3,-24.37 -71.54,-50.35 -104.59,-79.01 -60.64,-52.58 -147.3,-122.59 -175.19,-199.33 -41.18,-113.33 50.24,-261.68 178.33,-200.05 58.6,28.19 84.29,92.62 138.1,129.2 55.27,37.57 125.21,57.25 188.1,74.51 32.17,8.83 57.61,10.02 90.35,15.2 27.46,4.34 52.94,19.54 79.84,24.6 61.4,11.56 105.65,21.59 155.4,-16.08 44.87,-33.98 68.95,-85.05 107.4,-126.67 46.55,-50.39 100.22,-81.68 159.44,-115.9 89.93,-51.96 175.13,-34.38 272.32,-6.33 79.9,23.04 155,54.72 233.1,81.41 28.5,9.75 48,14.58 71.3,35.93 47.2,43.25 75.7,97.79 100.7,154.58 33.8,76.4 71.3,140.55 92.2,221.15 27.1,104.28 52.9,196.96 37.2,305.37"
           style="fill:#9c8870;fill-opacity:1;fill-rule:nonzero;stroke:none"
           transform="matrix(0.13333333,0,0,-0.13333333,0,1370.08)" />
        <path
           id="path206"
           d="m 9304.37,7044.14 c 0,0 29.02,-13.93 63.22,-14.81 19.64,-0.49 36.73,77.36 -8.96,89.15 -47.15,12.2 -67.34,-54.2 -54.26,-74.34"
           style="fill:#ffffff;fill-opacity:1;fill-rule:nonzero;stroke:none"
           transform="matrix(0.13333333,0,0,-0.13333333,0,1370.08)" />
        <path
           id="path207"
           d="m 9318.15,7042.23 c 0,0 23.25,-11.11 50.59,-11.84 15.76,-0.38 29.39,61.91 -7.17,71.38 -37.73,9.72 -53.87,-43.43 -43.42,-59.54"
           style="fill:#2e1816;fill-opacity:1;fill-rule:nonzero;stroke:none"
           transform="matrix(0.13333333,0,0,-0.13333333,0,1370.08)" />
        <path
           id="path208"
           d="m 9375.07,7072.28 c -1.32,-5.02 -6.7,-8.03 -12,-6.65 -5.35,1.38 -8.61,6.59 -7.31,11.64 1.34,5.07 6.7,8.03 12,6.65 5.36,-1.32 8.62,-6.56 7.31,-11.64"
           style="fill:#ffffff;fill-opacity:1;fill-rule:nonzero;stroke:none"
           transform="matrix(0.13333333,0,0,-0.13333333,0,1370.08)" />
        <path
           id="path209"
           d="m 9038.98,6728.7 -25.83,-0.66 c 3.19,1.32 7.12,2.09 11.47,2.52 4.92,-0.41 9.75,-0.98 14.36,-1.86"
           style="fill:#c9474a;fill-opacity:1;fill-rule:nonzero;stroke:none"
           transform="matrix(0.13333333,0,0,-0.13333333,0,1370.08)" />
        <path
           id="path210"
           d="m 8678.9,6401.1 c 10.24,48.65 51.46,91.74 72.56,136.82 18.81,40.18 39.18,75.72 67.28,109.59 12.63,15.23 28.89,29.28 44,41.84 17.43,14.49 32.83,28.62 55.05,33.71 -39.67,-47.93 -79.16,-96.78 -115.76,-150.62 -46.36,-66.32 -148.43,-137.17 -102.25,-214.28 22.77,-41.28 89.36,-38.02 121.02,-3.09 131.96,137.41 337.46,215.96 416.62,374.23 3.11,-0.29 6.22,-0.58 9.34,-0.94 13.09,-1.51 36.14,-2.52 36.28,-20.74 0.1,-13.6 -27.45,-44.47 -36.18,-54.54 -53.02,-61.17 -129.28,-100.88 -192.42,-150.5 -51.94,-40.82 -98.87,-87.05 -149.01,-129.93 -26.7,-22.83 -52.52,-46.78 -82.41,-64.23 -67.8,-39.59 -162.05,7.57 -144.12,92.68"
           style="fill:#e25e6b;fill-opacity:1;fill-rule:nonzero;stroke:none"
           transform="matrix(0.13333333,0,0,-0.13333333,0,1370.08)" />
        <path
           id="path211"
           d="m 8820.8,6355.07 c -31.66,-34.93 -98.25,-38.19 -121.02,3.09 -46.18,77.11 55.89,147.96 102.25,214.28 36.6,53.84 76.09,102.69 115.76,150.62 1.34,0.31 2.62,0.7 4.01,0.94 20.15,3.46 42.08,11.09 62.73,8.93 12.87,-1.35 26.85,-1.26 40.09,-2.37 -4.35,-0.43 -8.28,-1.2 -11.47,-2.52 l 25.83,0.66 c -4.61,0.88 -9.44,1.45 -14.36,1.86 16.32,1.61 38.87,-1.81 53.09,-0.81 23.02,1.6 45.77,0.64 68.66,1.19 30.59,0.73 60.3,1.22 91.05,-1.64 -79.16,-158.27 -284.66,-236.82 -416.62,-374.23"
           style="fill:#c9474a;fill-opacity:1;fill-rule:nonzero;stroke:none"
           transform="matrix(0.13333333,0,0,-0.13333333,0,1370.08)" />
        <path
           id="path212"
           d="m 9463.8,7091.09 c -10.5,15.94 -22.25,32.66 -26.34,51.59 -4,18.48 -5.19,41.67 -20.03,55.39 -24.24,22.4 -58.54,10.22 -84.72,-1.05 -31.49,-13.56 -51.09,-39.96 -76.9,-59.99 -26.52,-20.59 -58.04,-41.14 -80.37,-63.86 17.41,-0.85 32.06,22.64 45.24,31.58 18.28,12.39 37.41,23.54 55.72,35.76 24.99,16.68 52.02,42.83 83.79,39.92 26.89,-2.46 42.6,-21.33 57.21,-41.87 4.05,-5.7 49.84,-60.03 47.46,-38.39 l -1.06,-9.08"
           style="fill:#826f5e;fill-opacity:1;fill-rule:nonzero;stroke:none"
           transform="matrix(0.13333333,0,0,-0.13333333,0,1370.08)" />
        <path
           id="path213"
           d="m 10581.1,6916.39 c -43.6,-246.62 -191.1,-473.11 -432.2,-589.41 -245.13,-114.85 -544.6,13.9 -655.27,247.51 -10.72,-51.07 -38.16,-104.22 -88.58,-123.51 34.49,3.39 64.91,-0.67 97.69,-25.49 44.87,-33.98 68.95,-85.05 107.4,-126.67 46.55,-50.39 100.22,-81.68 159.44,-115.9 89.93,-51.96 175.13,-34.38 272.32,-6.33 79.9,23.04 155,54.72 233.1,81.41 28.5,9.75 48,14.58 71.3,35.93 47.2,43.25 75.7,97.79 100.7,154.58 33.8,76.4 71.3,140.55 92.2,221.15 22.1,85.02 43.3,162.32 41.9,246.73"
           style="fill:#bd9e73;fill-opacity:1;fill-rule:nonzero;stroke:none"
           transform="matrix(0.13333333,0,0,-0.13333333,0,1370.08)" />
        <path
           id="path214"
           d="m 8755.91,6868.78 c 8.26,-0.64 11.25,-46.32 9.9,-52.37 -7.12,-31.91 -49.27,-43.7 -54.84,-6.59 -4.31,28.7 12.95,61.45 44.94,58.96"
           style="fill:#826f5e;fill-opacity:1;fill-rule:nonzero;stroke:none"
           transform="matrix(0.13333333,0,0,-0.13333333,0,1370.08)" />
        <path
           id="path215"
           d="m 8450.26,6932.44 c 5.45,-0.43 7.42,-30.57 6.53,-34.56 -4.69,-21.05 -32.51,-28.84 -36.19,-4.35 -2.84,18.94 8.55,40.55 29.66,38.91"
           style="fill:#826f5e;fill-opacity:1;fill-rule:nonzero;stroke:none"
           transform="matrix(0.13333333,0,0,-0.13333333,0,1370.08)" />
        <path
           id="path216"
           d="m 10173.4,6487.99 c -10.7,-48.21 -18.3,-99.73 -21.4,-149.42 -3.4,-53.59 15.6,-136.9 49.7,-180.34 66.2,-84.39 161.9,-20.64 214.5,47.53 66.4,86.01 90.5,177.09 102.9,282.99 8.9,76.88 27,139.19 -54.7,170.96 -60.8,23.7 -139.3,34.25 -202.6,7.72 -71.3,-29.9 -73.4,-111.59 -88.4,-179.44"
           style="fill:#9c8870;fill-opacity:1;fill-rule:nonzero;stroke:none"
           transform="matrix(0.13333333,0,0,-0.13333333,0,1370.08)" />
        <path
           id="path217"
           d="m 10205.5,6197.15 c -11.1,2.17 -33.8,-117.01 -35.2,-143.24 -2.4,-43.74 4.3,-96.21 23.8,-135.87 26.2,-53.57 102.2,-46.29 143,-12.13 72.3,60.44 134.3,261.17 26.3,320.63 l -157.9,-29.39"
           style="fill:#9c8870;fill-opacity:1;fill-rule:nonzero;stroke:none"
           transform="matrix(0.13333333,0,0,-0.13333333,0,1370.08)" />
        <path
           id="path218"
           d="m 10111.1,5759.41 c -40.9,-45.23 -105.3,-72.6 -108.9,-138.1 -2.39,-42.99 19,-104.17 58.7,-57.54 28,32.94 49.7,70.4 79.2,102.67 -2,-57.62 -86.1,-161.08 10.5,-184.65 68.4,-16.68 64.3,117.34 98.5,150.77 8,-34.91 16,-76.63 25.8,-108.48 11.2,-36.91 41.8,-43.46 72.2,-60.36 24.2,50.47 36.7,77.2 26.3,132.28 -8.8,46.53 -36.2,83.98 -35.4,129.56 1.1,56.81 17.9,116.91 6,173.42 -11.5,54.5 -79.9,69.6 -120.4,41.21 -58.7,-41.24 -65.3,-128.66 -112.5,-180.78"
           style="fill:#9c8870;fill-opacity:1;fill-rule:nonzero;stroke:none"
           transform="matrix(0.13333333,0,0,-0.13333333,0,1370.08)" />
        <path
           id="path219"
           d="m 9948.79,6046.17 c 14.03,6.8 55.51,-23.22 52.61,-49.25 -2.93,-26.46 -26.95,-47.72 -42.72,-68.48 -16.55,-21.77 -40.38,-45.36 -52.9,-67.55 -13.9,-24.64 -5.15,-51.07 -12.69,-77.74 -27.39,1.79 -35.9,15.82 -60.99,0.52 -14.7,-8.96 -26.01,-25.73 -41.19,-34.93 -33.37,-20.21 -93.72,-53.6 -128.74,-33.68 -4.88,10.74 -2.58,20.15 7.61,26.34 -31.22,3.62 -59.37,-8.86 -88.5,-5.16 -34.21,4.35 -43.92,36.94 -20.56,63.15 -21.97,0.65 -44.1,-9.13 -53.44,18.37 -8.18,24.07 10.77,32.76 29.68,43.99 39.23,23.32 84.84,21.64 124.33,40.79 19.65,9.53 36.18,20.38 56.6,25.7 22.15,5.77 47.82,2.89 67.87,14.92 16.88,10.13 36.52,28.77 52.24,41.63 21.86,17.87 21.27,30.4 24.88,61.28 -0.2,-1.72 -0.4,-3.43 -0.6,-5.14 l 86.51,5.24"
           style="fill:#826f5e;fill-opacity:1;fill-rule:nonzero;stroke:none"
           transform="matrix(0.13333333,0,0,-0.13333333,0,1370.08)" />
        <path
           id="path220"
           d="m 8670.86,6473.05 c -3.97,-13.94 -9.4,-55.13 3.45,-66.12 11.82,-10.12 21.66,22.33 23.67,28.83 5.71,18.49 -4.95,36.46 -27.12,37.29"
           style="fill:#ffffff;fill-opacity:1;fill-rule:nonzero;stroke:none"
           transform="matrix(0.13333333,0,0,-0.13333333,0,1370.08)" />
        <path
           id="path221"
           d="m 8711.09,6515.75 c 3.48,15.79 11.88,13.39 26.39,13.41 8.21,0 10.38,5.1 13.3,-4.25 1.97,-6.3 -3.52,-13.69 -6.26,-18.51 -3.92,-6.91 -10.01,-24.92 -18.93,-26.76 -14.29,-2.96 -16.76,25.79 -14.5,36.11"
           style="fill:#ffffff;fill-opacity:1;fill-rule:nonzero;stroke:none"
           transform="matrix(0.13333333,0,0,-0.13333333,0,1370.08)" />
        <path
           id="path222"
           d="m 9013.63,6509.26 c 7.93,-14.1 0.07,-17.9 -10.74,-27.58 -6.11,-5.48 -4.33,-10.72 -12.75,-5.7 -5.66,3.38 -6.49,12.56 -7.66,17.97 -1.68,7.77 -9.14,25.25 -3.72,32.58 8.68,11.72 29.69,-8.07 34.87,-17.27"
           style="fill:#ffffff;fill-opacity:1;fill-rule:nonzero;stroke:none"
           transform="matrix(0.13333333,0,0,-0.13333333,0,1370.08)" />
        <path
           id="path223"
           d="m 8752.98,6590.97 c 3.47,15.79 11.88,13.39 26.39,13.4 8.2,0.01 10.37,5.11 13.29,-4.24 1.97,-6.3 -3.52,-13.69 -6.26,-18.51 -3.92,-6.91 -10,-24.92 -18.93,-26.77 -14.29,-2.95 -16.76,25.8 -14.49,36.12"
           style="fill:#ffffff;fill-opacity:1;fill-rule:nonzero;stroke:none"
           transform="matrix(0.13333333,0,0,-0.13333333,0,1370.08)" />
        <path
           id="path224"
           d="m 8826.03,6376.89 c 1.69,16.66 14.77,8.68 26.54,2.19 11.95,-6.59 23.59,-11.49 14.57,-25.91 -20.82,-33.26 -44.34,-8.24 -41.11,23.72"
           style="fill:#ffffff;fill-opacity:1;fill-rule:nonzero;stroke:none"
           transform="matrix(0.13333333,0,0,-0.13333333,0,1370.08)" />
        <path
           id="path225"
           d="m 8900.89,6450.98 c 1.82,18.1 16.9,9.33 30.47,2.19 13.77,-7.25 27.19,-12.66 16.93,-28.27 -23.68,-36 -50.88,-8.64 -47.4,26.08"
           style="fill:#ffffff;fill-opacity:1;fill-rule:nonzero;stroke:none"
           transform="matrix(0.13333333,0,0,-0.13333333,0,1370.08)" />
        <path
           id="path226"
           d="m 10138.7,5548.72 c -20.3,-0.26 -30.7,-32.8 -33.4,-50.1 -2,-12.96 1.9,-47.03 16.2,-50.52 22.1,-5.39 45,29.32 57,44.01 7.4,9.03 8.5,29.55 2.8,39.99 -7.5,14.02 -28.7,16.8 -42.6,16.62"
           style="fill:#bd9e73;fill-opacity:1;fill-rule:nonzero;stroke:none"
           transform="matrix(0.13333333,0,0,-0.13333333,0,1370.08)" />
        <path
           id="path227"
           d="m 9607.04,5804.92 c -16.86,11.3 -43.84,-9.64 -55.88,-22.36 -9.02,-9.53 -25.07,-39.83 -15.27,-50.82 15.11,-16.94 53.64,-1.32 71.86,3.98 11.19,3.25 23.74,19.52 25.01,31.32 1.72,15.85 -14.13,30.12 -25.72,37.88"
           style="fill:#bd9e73;fill-opacity:1;fill-rule:nonzero;stroke:none"
           transform="matrix(0.13333333,0,0,-0.13333333,0,1370.08)" />
        <path
           id="path228"
           d="m 10013.5,5604.83 c -14.39,-2.32 -18.31,-26.53 -18.41,-39.11 -0.07,-9.42 6.31,-33.19 16.81,-34.17 16.3,-1.5 28.9,25.57 35.9,37.27 4.2,7.19 2.9,21.88 -2.2,28.71 -6.9,9.16 -22.2,8.9 -32.1,7.3"
           style="fill:#bd9e73;fill-opacity:1;fill-rule:nonzero;stroke:none"
           transform="matrix(0.13333333,0,0,-0.13333333,0,1370.08)" />
        <path
           id="path229"
           d="m 9682.51,5746.12 c -11.49,2.34 -21.3,-14.42 -24.94,-23.66 -2.73,-6.93 -4.65,-26.28 2.99,-29.96 11.79,-5.68 28.95,10.74 37.52,17.41 5.27,4.09 8.4,15.32 6.49,21.79 -2.56,8.69 -14.16,12.81 -22.06,14.42"
           style="fill:#bd9e73;fill-opacity:1;fill-rule:nonzero;stroke:none"
           transform="matrix(0.13333333,0,0,-0.13333333,0,1370.08)" />
        <path
           id="path230"
           d="m 9515.88,5835.44 c -11.49,2.34 -21.3,-14.41 -24.94,-23.66 -2.73,-6.93 -4.65,-26.27 3,-29.96 11.78,-5.68 28.95,10.74 37.51,17.41 5.27,4.1 8.4,15.32 6.49,21.79 -2.56,8.69 -14.16,12.81 -22.06,14.42"
           style="fill:#bd9e73;fill-opacity:1;fill-rule:nonzero;stroke:none"
           transform="matrix(0.13333333,0,0,-0.13333333,0,1370.08)" />
        <path
           id="path231"
           d="m 10326.2,5522.44 c -14.1,-4.47 -14.4,-29.36 -12.6,-42 1.3,-9.47 11.3,-32.4 22,-31.81 16.5,0.9 25.1,29.95 30.4,42.74 3.2,7.85 -0.3,22.4 -6.5,28.49 -8.2,8.19 -23.6,5.65 -33.3,2.58"
           style="fill:#bd9e73;fill-opacity:1;fill-rule:nonzero;stroke:none"
           transform="matrix(0.13333333,0,0,-0.13333333,0,1370.08)" />
        <path
           id="path232"
           d="m 10540.4,6925.9 c -9.3,-4.83 -15.3,16.85 -8.4,20.29 9,4.5 17.5,-15.57 8.4,-20.29"
           style="fill:#826f5e;fill-opacity:1;fill-rule:nonzero;stroke:none"
           transform="matrix(0.13333333,0,0,-0.13333333,0,1370.08)" />
        <path
           id="path233"
           d="m 10521.1,6902.94 c -0.6,-13.9 -15.4,-22.05 -25.7,-11.39 -9.4,9.81 2.1,36.95 16.6,33.18 7,-1.83 9.4,-16.15 9.1,-21.79"
           style="fill:#826f5e;fill-opacity:1;fill-rule:nonzero;stroke:none"
           transform="matrix(0.13333333,0,0,-0.13333333,0,1370.08)" />
        <path
           id="path234"
           d="m 10501.2,6981.44 c 18.8,15.35 29,-30.06 9.2,-40.68 -10.3,-5.56 -17.1,1.41 -19.9,11.66 -3.3,11.77 1.5,21.5 10.7,29.02"
           style="fill:#826f5e;fill-opacity:1;fill-rule:nonzero;stroke:none"
           transform="matrix(0.13333333,0,0,-0.13333333,0,1370.08)" />
        <path
           id="path235"
           d="m 10369.7,6099.02 c -8.5,7.5 -23.2,2.36 -30.9,-3.84 -8.6,-7 -7,-20.34 3.7,-23.95 9.3,-3.13 21.1,2.07 27.8,8.42 8.7,8.26 4.9,18.44 -4.2,24.28 -3.2,2.07 -6.2,-3.06 -3,-5.12 16.4,-10.49 -4.8,-22.9 -16.4,-22.36 -8.8,0.41 -9.2,9.5 -3.7,14.54 4.7,4.22 17,8.7 22.5,3.84 2.8,-2.51 7.1,1.66 4.2,4.19 v 0"
           style="fill:#826f5e;fill-opacity:1;fill-rule:nonzero;stroke:none"
           transform="matrix(0.13333333,0,0,-0.13333333,0,1370.08)" />
        <path
           id="path236"
           d="m 10368.2,6097.54 c -2.8,2.25 -6,2.34 -9.5,2.35 -3.8,0.01 -3.8,-5.92 0,-5.93 1.5,0 4.1,0.39 5.3,-0.61 3,-2.37 7.2,1.79 4.2,4.19 v 0"
           style="fill:#826f5e;fill-opacity:1;fill-rule:nonzero;stroke:none"
           transform="matrix(0.13333333,0,0,-0.13333333,0,1370.08)" />
        <path
           id="path237"
           d="m 10536.4,7004.86 c -4.1,0 -8,-0.21 -11.8,-1.88 -1,-0.42 -1.5,-1.6 -1.5,-2.56 -0.2,-5.57 0.7,-11.57 4.9,-15.63 3,-2.96 7.6,-4.06 11.6,-2.72 4.1,1.35 6.8,4.92 7.3,9.12 0.7,6 -3.1,11.56 -6.9,15.77 -2.6,2.83 -6.7,-1.37 -4.2,-4.19 2.7,-2.96 5.4,-6.61 5.2,-10.8 0,-2.14 -1.6,-3.73 -3.3,-4.29 -2,-0.66 -4.1,-0.16 -5.8,1.58 -2.9,2.79 -3,7.47 -2.9,11.16 -0.5,-0.85 -0.9,-1.7 -1.4,-2.56 2.7,1.21 5.9,1.08 8.8,1.08 3.9,0 3.9,5.93 0,5.92 v 0"
           style="fill:#826f5e;fill-opacity:1;fill-rule:nonzero;stroke:none"
           transform="matrix(0.13333333,0,0,-0.13333333,0,1370.08)" />
        <path
           id="path238"
           d="m 10543.4,7000.43 c -2.7,4.49 -8.2,4.43 -12.9,4.43 -3.8,0.01 -3.8,-5.92 0,-5.92 2.1,0 6.5,0.61 7.8,-1.5 2,-3.25 7.1,-0.27 5.1,2.99 v 0"
           style="fill:#826f5e;fill-opacity:1;fill-rule:nonzero;stroke:none"
           transform="matrix(0.13333333,0,0,-0.13333333,0,1370.08)" />
        <path
           id="path239"
           d="m 10537.9,7007.83 c -1.5,0 -2.9,0 -4.4,0 -3.8,0 -3.8,-5.93 0,-5.93 1.5,0 2.9,0 4.4,0 3.8,0 3.8,5.93 0,5.93 v 0"
           style="fill:#826f5e;fill-opacity:1;fill-rule:nonzero;stroke:none"
           transform="matrix(0.13333333,0,0,-0.13333333,0,1370.08)" />
        <path
           id="path240"
           d="m 9484.72,6951.88 c 3.24,9.94 22.7,-1.35 20.21,-8.61 -3.26,-9.49 -23.38,-1.09 -20.21,8.61"
           style="fill:#826f5e;fill-opacity:1;fill-rule:nonzero;stroke:none"
           transform="matrix(0.13333333,0,0,-0.13333333,0,1370.08)" />
        <path
           id="path241"
           d="m 9482.44,6981.78 c -9.31,10.34 -4.4,26.55 10.38,26.11 13.61,-0.41 24.38,-27.85 11.38,-35.29 -6.28,-3.6 -17.98,4.99 -21.76,9.18"
           style="fill:#826f5e;fill-opacity:1;fill-rule:nonzero;stroke:none"
           transform="matrix(0.13333333,0,0,-0.13333333,0,1370.08)" />
        <path
           id="path242"
           d="m 9551.61,6939.65 c -2.72,-24.15 -41.77,1.17 -35.08,22.58 3.5,11.21 13.21,10.96 22.44,5.65 10.59,-6.09 13.97,-16.41 12.64,-28.23"
           style="fill:#826f5e;fill-opacity:1;fill-rule:nonzero;stroke:none"
           transform="matrix(0.13333333,0,0,-0.13333333,0,1370.08)" />
        <path
           id="path243"
           d="m 9542.83,6898.27 c 2.91,2.86 5.6,5.78 7.13,9.62 0.4,0.99 -0.1,2.15 -0.76,2.88 -3.75,4.19 -8.76,7.84 -14.63,7.73 -4.14,-0.08 -8.08,-2.49 -9.97,-6.18 -1.99,-3.88 -1.37,-8.41 1.31,-11.79 3.72,-4.68 10.2,-5.96 15.84,-6.28 3.82,-0.23 3.8,5.7 0,5.92 -3.93,0.23 -8.31,0.94 -11.14,3.93 -1.6,1.7 -1.58,3.89 -0.74,5.53 3.32,6.47 11.61,0.89 15.14,-3.05 -0.25,0.96 -0.5,1.92 -0.76,2.88 -1.11,-2.78 -3.52,-4.95 -5.61,-7 -2.73,-2.68 1.46,-6.87 4.19,-4.19 v 0"
           style="fill:#826f5e;fill-opacity:1;fill-rule:nonzero;stroke:none"
           transform="matrix(0.13333333,0,0,-0.13333333,0,1370.08)" />
        <path
           id="path244"
           d="m 9534.7,6896.51 c 5.15,-1.21 8.96,2.58 12.36,5.9 2.74,2.67 -1.45,6.86 -4.19,4.19 -1.5,-1.47 -4.19,-4.94 -6.59,-4.37 -3.72,0.87 -5.3,-4.84 -1.58,-5.72 v 0"
           style="fill:#826f5e;fill-opacity:1;fill-rule:nonzero;stroke:none"
           transform="matrix(0.13333333,0,0,-0.13333333,0,1370.08)" />
        <path
           id="path245"
           d="m 9543.84,6895.11 c 1.06,1.04 2.12,2.08 3.18,3.11 2.73,2.68 -1.46,6.87 -4.19,4.19 -1.06,-1.03 -2.12,-2.07 -3.17,-3.11 -2.74,-2.67 1.45,-6.86 4.18,-4.19 v 0"
           style="fill:#826f5e;fill-opacity:1;fill-rule:nonzero;stroke:none"
           transform="matrix(0.13333333,0,0,-0.13333333,0,1370.08)" />
        <path
           id="path246"
           d="m 10346.9,6051.65 c -3.8,1.17 -9.9,2.07 -13.4,-0.13 -2.5,-1.49 -2.5,-4.28 -1.3,-6.57 1.7,-3.36 5.5,-4.72 9,-4.96 5.6,-0.37 13.6,5.98 7.4,10.98 -5,4.07 -12.1,2.09 -13.5,-4.35 -0.3,-1.28 0.2,-2.69 1.4,-3.35 3.4,-1.85 8.6,-4.71 11.6,-0.76 2.1,2.77 -0.8,7.04 -2.5,9.18 -1.9,2.43 -4.8,5.08 -8.2,4.49 -4.9,-0.88 -3.7,-7.83 -3,-11.14 0.2,-1.02 1.1,-1.77 2,-2.07 2.6,-0.83 5.6,-1.65 8.3,-0.74 3.6,1.22 2,6.95 -1.6,5.71 -1.6,-0.55 -3.5,0.25 -5.1,0.74 0.7,-0.69 1.4,-1.38 2.1,-2.06 -0.3,1.42 -0.5,2.83 -0.4,4.29 0,-0.11 0.1,0.29 0,0.19 -0.3,-0.54 -1,-0.74 -1.1,-0.73 -0.6,0.01 -0.2,-0.03 -0.2,-0.03 0.1,-0.07 1.1,-0.72 0.6,-0.36 0.8,-0.65 1.6,-1.43 2.2,-2.24 0.1,-0.12 1,-1.4 1.3,-2.02 0.4,-0.76 0,0.11 0.3,-0.64 0.1,-0.49 0,-0.26 0.1,0.12 0,0.13 0.7,1.04 1.1,1.17 0.6,0.15 0.1,0.04 -0.1,0.07 -1.6,0.33 -3,1.17 -4.4,1.95 0.4,-1.12 0.9,-2.23 1.3,-3.35 0.5,2.07 2.1,3.01 3.9,1.49 0.5,-0.41 0.2,-0.14 0.3,0.63 0,0.09 -0.9,-0.66 -1.3,-0.87 -1.4,-0.76 -3.5,-0.42 -4.9,0.22 -0.7,0.33 -1.1,0.8 -1.5,1.43 0,-0.04 -0.2,-1.13 -0.6,-1.37 0.4,0.25 1.9,0.21 2.6,0.21 2,-0.02 4.1,-0.26 6,-0.85 3.7,-1.13 5.2,4.59 1.6,5.72 v 0"
           style="fill:#826f5e;fill-opacity:1;fill-rule:nonzero;stroke:none"
           transform="matrix(0.13333333,0,0,-0.13333333,0,1370.08)" />
        <path
           id="path247"
           d="m 10375.8,6064.98 c -5.3,1.03 -10.6,-1.03 -13,-6.05 -2.3,-4.91 -0.7,-10.17 3.7,-13.25 5.4,-3.82 15.9,-3.84 17.3,4.12 0.9,5.61 -1.9,12.33 -6.2,15.97 -2,1.75 -4.9,2.97 -7.6,1.94 -3.4,-1.31 -5,-4.79 -5.9,-8.09 -0.4,-1.34 -0.6,-2.73 -0.9,-4.12 -0.5,-3.73 5.2,-5.34 5.8,-1.57 0.3,2.4 0.9,5.9 2.3,7.54 0.1,0.12 0.9,0.83 0.4,0.47 0.6,0.47 -0.2,0.08 0.6,0.26 -0.5,-0.1 0.2,-0.1 0.4,-0.19 1.2,-0.6 2.2,-1.79 3.1,-3.13 1.1,-1.78 1.7,-3.36 2.1,-5.48 0.3,-1.27 0.1,-2.84 -0.3,-3.54 -0.1,-0.2 -0.3,-0.39 -0.7,-0.52 -0.9,-0.31 -1.7,-0.3 -2.8,-0.13 -2.9,0.47 -6.4,1.64 -6.5,5.13 0,3.45 3.5,5.53 6.6,4.92 3.7,-0.72 5.3,4.99 1.6,5.72 v 0"
           style="fill:#826f5e;fill-opacity:1;fill-rule:nonzero;stroke:none"
           transform="matrix(0.13333333,0,0,-0.13333333,0,1370.08)" />
        <path
           id="path248"
           d="m 10372.2,6060.51 c -2.2,-1.91 -3.6,-4.62 -2.6,-7.51 1.1,-3.21 4.6,-4.74 7.6,-5.59 1.8,-0.51 3.7,0.94 3.7,2.86 -0.1,5.63 -1.9,9.69 -7.3,11.74 -1.9,0.69 -3.8,-1.06 -3.8,-2.85 0,-2.21 0.6,-5.98 -1.3,-7.53 -3,-2.4 1.2,-6.56 4.1,-4.19 3.4,2.71 3.1,7.82 3.1,11.72 -1.2,-0.95 -2.5,-1.91 -3.7,-2.86 2.8,-1.05 3,-3.32 3,-6.03 1.2,0.95 2.5,1.91 3.7,2.86 -1.1,0.31 -2.6,0.66 -3.4,1.67 -0.4,0.53 0.7,1.2 1,1.52 2.9,2.53 -1.3,6.7 -4.1,4.19 v 0"
           style="fill:#826f5e;fill-opacity:1;fill-rule:nonzero;stroke:none"
           transform="matrix(0.13333333,0,0,-0.13333333,0,1370.08)" />
        <path
           id="path249"
           d="m 10368.3,6052.83 c -0.1,-0.07 -0.2,-0.13 -0.3,-0.2 1.3,-0.35 2.7,-0.71 4,-1.06 0.2,-1.03 0.4,-0.98 0.7,0.14 1.4,3.53 -4.3,5.06 -5.8,1.57 -0.5,-1.43 -1.1,-3.33 0,-4.7 1,-1.3 2.5,-1.92 4,-1.06 0.2,0.06 0.3,0.13 0.4,0.19 3.3,1.84 0.4,6.96 -3,5.12 v 0"
           style="fill:#826f5e;fill-opacity:1;fill-rule:nonzero;stroke:none"
           transform="matrix(0.13333333,0,0,-0.13333333,0,1370.08)" />
        <path
           id="path250"
           d="m 10372.8,6050.27 c 0,1.32 0,2.64 0,3.97 0,3.82 -6,3.82 -6,0 0,-0.09 0,-0.18 0,-0.27 0,-3.82 6,-3.82 6,0 0,0.09 0,0.18 0,0.27 0,3.82 -6,3.82 -6,0 0,-1.33 0,-2.65 0,-3.97 0,-3.82 6,-3.82 6,0 v 0"
           style="fill:#826f5e;fill-opacity:1;fill-rule:nonzero;stroke:none"
           transform="matrix(0.13333333,0,0,-0.13333333,0,1370.08)" />
        <path
           id="path251"
           d="m 10366.1,6096.08 c -6.7,1.68 -14.1,1.53 -20.4,-1.53 -7.2,-3.5 -7.9,-12.34 -4.6,-18.8 3.5,-6.76 11.8,-4.78 17.1,-1.84 6.2,3.5 12.5,10.03 14.5,17.05 0.4,1.51 -0.5,3.26 -2.1,3.64 -11.4,2.72 -22.8,-1.59 -30.3,-10.39 -1.4,-1.65 -1,-4.32 1.3,-4.95 10.1,-2.77 18.4,4.26 23.4,12.47 1.1,1.84 -0.3,4.59 -2.6,4.46 -8.3,-0.5 -16,-5.96 -18.4,-14.03 -0.4,-1.24 0.2,-2.72 1.4,-3.34 8.9,-4.87 18.1,0.92 23.3,8.47 1.1,1.7 -0.1,3.72 -1.8,4.35 -9.1,3.46 -18.3,-1.01 -22.6,-9.51 -1.3,-2.5 1.4,-5.75 4,-4.05 9.4,6.03 -1.5,11.78 -8.1,12.18 0.5,-1.84 1,-3.68 1.5,-5.52 8.4,5.64 18.8,6.03 26.5,13.05 1.5,1.4 0.9,3.59 -0.6,4.66 -8.8,6.42 -19.7,-2.11 -22.9,-10.66 -1.3,-3.6 4.4,-5.13 5.7,-1.58 2,5.26 8.7,11.12 14.2,7.12 -0.2,1.55 -0.4,3.1 -0.6,4.65 -7.1,-6.51 -17.4,-6.83 -25.3,-12.12 -2.5,-1.67 -1.5,-5.34 1.5,-5.52 -1.1,0.06 6.2,-0.46 5.2,-1.15 1.3,-1.35 2.7,-2.7 4,-4.05 3.2,6.31 9.1,9.37 15.9,6.78 -0.6,1.45 -1.2,2.91 -1.8,4.36 -3.2,-4.73 -9.3,-9.54 -15.2,-6.35 0.5,-1.11 1,-2.23 1.4,-3.34 1.6,5.45 7.1,9.33 12.7,9.67 -0.9,1.49 -1.7,2.97 -2.6,4.46 -3.4,-5.81 -9.2,-11.78 -16.6,-9.75 0.4,-1.65 0.9,-3.3 1.3,-4.95 6.1,7.17 15.1,11.12 24.5,8.87 -0.7,1.21 -1.4,2.43 -2.1,3.64 -1.4,-5.16 -13.6,-19.99 -19.9,-14.73 -5.2,4.29 -0.7,10.99 4,12.55 4.3,1.39 9.3,1.09 13.6,0.02 3.7,-0.93 5.3,4.78 1.5,5.71 v 0"
           style="fill:#826f5e;fill-opacity:1;fill-rule:nonzero;stroke:none"
           transform="matrix(0.13333333,0,0,-0.13333333,0,1370.08)" />
        <path
           id="path252"
           d="m 10357.3,6034.61 c -8.6,3.28 -15.5,-6.75 -12.3,-14.36 2.6,-6.23 9.7,-8.98 15.6,-5.88 4.4,2.3 7.6,7.6 7.6,12.53 0,6.96 -6.9,8.52 -12.5,7.71 -3.8,-0.54 -2.2,-6.25 1.6,-5.71 1.4,0.2 3,0.27 4.2,-0.42 0.6,-0.33 0.8,-0.94 0.8,-1.58 0.1,-2.44 -1.7,-5.07 -3.6,-6.74 -1.9,-1.65 -4.4,-1.68 -6.4,-0.07 -1.9,1.62 -2.6,3.7 -1.9,6.13 0.7,2.53 3,3.57 5.3,2.68 3.6,-1.37 5.1,4.36 1.6,5.71 v 0"
           style="fill:#826f5e;fill-opacity:1;fill-rule:nonzero;stroke:none"
           transform="matrix(0.13333333,0,0,-0.13333333,0,1370.08)" />
        <path
           id="path253"
           d="m 8904.27,7256.02 c 16.59,2.26 34.15,-15.85 43.77,-27.38 2.45,-2.93 6.62,1.28 4.19,4.19 -11.35,13.59 -30.25,31.53 -49.54,28.91 -3.77,-0.52 -2.16,-6.22 1.58,-5.72 v 0"
           style="fill:#826f5e;fill-opacity:1;fill-rule:nonzero;stroke:none"
           transform="matrix(0.13333333,0,0,-0.13333333,0,1370.08)" />
        <path
           id="path254"
           d="m 8897.56,7237.4 c 12.84,-1.27 21.07,-13.93 29.75,-22.09 2.77,-2.61 6.97,1.57 4.18,4.19 -10.18,9.58 -18.92,22.34 -33.93,23.83 -3.81,0.38 -3.77,-5.55 0,-5.93 v 0"
           style="fill:#826f5e;fill-opacity:1;fill-rule:nonzero;stroke:none"
           transform="matrix(0.13333333,0,0,-0.13333333,0,1370.08)" />
        <path
           id="path255"
           d="m 8894.58,7220.03 c 4.83,-3.49 9.46,-7.43 13.01,-12.26 2.23,-3.05 7.38,-0.1 5.11,2.99 -4.19,5.7 -9.42,10.26 -15.13,14.39 -3.1,2.24 -6.06,-2.9 -2.99,-5.12 v 0"
           style="fill:#826f5e;fill-opacity:1;fill-rule:nonzero;stroke:none"
           transform="matrix(0.13333333,0,0,-0.13333333,0,1370.08)" />
        <path
           id="path256"
           d="m 9455.33,7099.78 c 3.38,-3.02 5.27,-7.46 7.68,-11.25 1.35,1.36 2.71,2.71 4.06,4.06 -10.31,7.54 -16.63,19.41 -24.58,29.16 -2.42,2.96 -6.59,-1.26 -4.19,-4.19 8.36,-10.24 14.93,-22.16 25.78,-30.09 2.43,-1.78 5.58,1.65 4.05,4.05 -2.7,4.24 -4.82,9.06 -8.61,12.45 -2.84,2.54 -7.04,-1.63 -4.19,-4.19 v 0"
           style="fill:#826f5e;fill-opacity:1;fill-rule:nonzero;stroke:none"
           transform="matrix(0.13333333,0,0,-0.13333333,0,1370.08)" />
        <path
           id="path257"
           d="m 9427.91,7158.12 c 1.92,-12.5 6.46,-23.74 12.7,-34.68 6.85,-12 22.01,-19.87 22.74,-34.89 0.19,-3.8 6.11,-3.82 5.92,0 -0.48,9.87 -5.88,16.94 -12.24,24.14 -12.23,13.84 -20.55,28.45 -23.41,47 -0.58,3.77 -6.29,2.16 -5.71,-1.57 v 0"
           style="fill:#826f5e;fill-opacity:1;fill-rule:nonzero;stroke:none"
           transform="matrix(0.13333333,0,0,-0.13333333,0,1370.08)" />
        <path
           id="path258"
           d="m 8713.88,6977.13 c 42.07,-18.34 77.16,-49.06 119.23,-67.39 3.47,-1.52 6.49,3.59 2.99,5.11 -42.07,18.34 -77.16,49.06 -119.23,67.39 -3.46,1.51 -6.48,-3.59 -2.99,-5.11 v 0"
           style="fill:#826f5e;fill-opacity:1;fill-rule:nonzero;stroke:none"
           transform="matrix(0.13333333,0,0,-0.13333333,0,1370.08)" />
        <path
           id="path259"
           d="m 8803.46,7014.6 c 37.72,-10.63 62.29,-45.23 92.6,-67.84 3.07,-2.28 6.01,2.86 2.99,5.12 -30.87,23.03 -55.5,57.58 -94.02,68.43 -3.68,1.04 -5.25,-4.68 -1.57,-5.71 v 0"
           style="fill:#826f5e;fill-opacity:1;fill-rule:nonzero;stroke:none"
           transform="matrix(0.13333333,0,0,-0.13333333,0,1370.08)" />
        <path
           id="path260"
           d="m 9576.27,6813.5 c 5.32,-35.11 -0.83,-69.14 -21.43,-98.43 -2.2,-3.13 2.94,-6.09 5.12,-2.99 21.56,30.67 27.58,66.3 22.02,103 -0.57,3.77 -6.28,2.16 -5.71,-1.58 v 0"
           style="fill:#826f5e;fill-opacity:1;fill-rule:nonzero;stroke:none"
           transform="matrix(0.13333333,0,0,-0.13333333,0,1370.08)" />
        <path
           id="path261"
           d="m 9612.11,6787.12 c 12.17,-23.26 -1.13,-44.45 -19.28,-59.6 -2.94,-2.45 1.28,-6.62 4.19,-4.19 20.47,17.09 33.62,41.15 20.21,66.78 -1.77,3.39 -6.88,0.39 -5.12,-2.99 v 0"
           style="fill:#826f5e;fill-opacity:1;fill-rule:nonzero;stroke:none"
           transform="matrix(0.13333333,0,0,-0.13333333,0,1370.08)" />
        <path
           id="path262"
           d="m 10228,5920.87 c 6.8,-31.23 57.6,-42.89 81.3,-25.47 3.1,2.24 0.1,7.38 -2.9,5.12 -20.7,-15.15 -66.7,-5.7 -72.7,21.93 -0.8,3.73 -6.5,2.15 -5.7,-1.58 v 0"
           style="fill:#826f5e;fill-opacity:1;fill-rule:nonzero;stroke:none"
           transform="matrix(0.13333333,0,0,-0.13333333,0,1370.08)" />
        <path
           id="path263"
           d="m 10220.8,5878.09 c 15.2,-17.94 44,-16.65 65.3,-18.64 3.8,-0.35 3.8,5.57 0,5.93 -19.7,1.84 -47,0.31 -61.1,16.9 -2.5,2.92 -6.6,-1.29 -4.2,-4.19 v 0"
           style="fill:#826f5e;fill-opacity:1;fill-rule:nonzero;stroke:none"
           transform="matrix(0.13333333,0,0,-0.13333333,0,1370.08)" />
        <path
           id="path264"
           d="m 10152.8,6326.5 c 0,46.76 11.8,92.68 25.8,137.05 14.3,45.02 32.5,89.46 56.8,130.04 1.9,3.28 -3.2,6.26 -5.2,2.99 -23.7,-39.73 -41.3,-83.05 -55.8,-126.93 -15.2,-46.04 -27.5,-94.45 -27.5,-143.15 0,-3.82 5.9,-3.82 5.9,0 v 0"
           style="fill:#826f5e;fill-opacity:1;fill-rule:nonzero;stroke:none"
           transform="matrix(0.13333333,0,0,-0.13333333,0,1370.08)" />
        <path
           id="path265"
           d="m 9601.4,6431.48 c 44.44,23.7 56.29,109.61 119.98,94.8 h -1.48 -1.49 v 0 0 0 c 88.87,19.25 97.76,-84.43 96.28,-148.12 0,-13.33 0,-31.1 -4.45,-44.43 -7.4,-19.26 -7.4,-19.26 -31.1,-14.81 -34.07,5.92 -60.73,25.18 -91.83,41.47 -32.58,17.77 -72.58,39.99 -88.87,74.06 l 2.96,-2.97"
           style="fill:#826f5e;fill-opacity:1;fill-rule:nonzero;stroke:none"
           transform="matrix(0.13333333,0,0,-0.13333333,0,1370.08)" />
        <path
           id="path266"
           d="m 9776.95,6509.96 c -25.9,19.87 -59.5,23.39 -86.84,4.35 -32.14,-22.39 -37.29,-54.92 -46.01,-90.91 -6.7,-27.66 -17.98,-54.06 -22.92,-82.06 -15.87,-19.1 -102.42,1.68 -119.15,2.78 -21.3,1.4 -50.08,5.82 -70.18,-2.06 -16.53,-6.48 -41.69,-26.34 -44.43,-44.94 15.37,14.12 34.98,22.53 57.8,18.55 -22.23,-9.31 -41.22,-24.92 -40.15,-51.93 14.75,13.76 30.76,29.87 51.61,28.59 -11.75,-14.84 -12.29,-44.26 -10.72,-62.54 2.43,-0.39 4.65,-0.72 7.13,-0.83 4.71,23.07 26.69,46.29 51.51,49.93 23.71,3.47 43.21,-16.03 56.88,-31.7 20.43,-23.43 37.05,-21.42 64.03,-11.79 16.56,5.9 33.18,7.64 47.87,18.12 7.93,5.65 12.77,12.82 17.43,20.17 46.73,23.29 57.97,90.87 77.96,133.16 13.52,28.58 40.95,77.98 8.18,103.11"
           style="fill:#9c8870;fill-opacity:1;fill-rule:nonzero;stroke:none"
           transform="matrix(0.13333333,0,0,-0.13333333,0,1370.08)" />
        <path
           id="path267"
           d="m 9619.5,6337.56 c -0.48,-3 -3.69,-0.74 -0.93,-2.01 0.97,-0.45 1.89,-1.02 2.8,-1.58 2.53,-1.56 4.83,-3.46 7.04,-5.42 4.95,-4.4 9.86,-9.96 11.05,-16.66 0.68,-3.75 6.39,-2.16 5.72,1.58 -1.68,9.35 -9.44,17.14 -16.69,22.69 -2.15,1.64 -13.54,10.23 -14.7,2.98 -0.59,-3.74 5.11,-5.34 5.71,-1.58 v 0"
           style="fill:#826f5e;fill-opacity:1;fill-rule:nonzero;stroke:none"
           transform="matrix(0.13333333,0,0,-0.13333333,0,1370.08)" />
        <path
           id="path268"
           d="m 9631.66,6351.29 c 9.28,-3.13 20.01,-7.21 26.34,-15.03 2.4,-2.97 6.57,1.25 4.19,4.19 -6.96,8.6 -18.75,13.11 -28.96,16.56 -3.63,1.22 -5.17,-4.5 -1.57,-5.72 v 0"
           style="fill:#826f5e;fill-opacity:1;fill-rule:nonzero;stroke:none"
           transform="matrix(0.13333333,0,0,-0.13333333,0,1370.08)" />
        <path
           id="path269"
           d="m 10046,7143.12 c -1.4,-8.73 5.7,-20.55 14,-23.82 11.2,-4.42 25.8,1.87 27.3,13.31 1,6.91 -0.3,14.94 -5.5,20.06 -9.2,9.15 -33.6,4.55 -35.8,-9.55"
           style="fill:#bd9e73;fill-opacity:1;fill-rule:nonzero;stroke:none"
           transform="matrix(0.13333333,0,0,-0.13333333,0,1370.08)" />
        <path
           id="path270"
           d="m 10106.7,7140.4 c -0.7,-4.4 2.9,-10.36 7,-12 5.7,-2.23 13.1,0.94 13.8,6.71 0.5,3.48 -0.2,7.53 -2.8,10.11 -4.6,4.61 -16.9,2.29 -18,-4.82"
           style="fill:#bd9e73;fill-opacity:1;fill-rule:nonzero;stroke:none"
           transform="matrix(0.13333333,0,0,-0.13333333,0,1370.08)" />
        <path
           id="path271"
           d="m 10007.1,7148.71 c 0.3,-3.44 5,-6.81 9.3,-6.82 6,-0.03 12.3,4.41 11.8,8.87 -0.3,2.7 -1.8,5.49 -4.9,6.65 -5.5,2.07 -16.7,-3.15 -16.2,-8.7"
           style="fill:#bd9e73;fill-opacity:1;fill-rule:nonzero;stroke:none"
           transform="matrix(0.13333333,0,0,-0.13333333,0,1370.08)" />
      </g>
    </g>
  </g>
</svg>
