<?xml version="1.0" encoding="UTF-8" standalone="no"?>
<!-- Created with Inkscape (http://www.inkscape.org/) -->

<svg
   version="1.1"
   id="svg1"
   width="310.60803"
   height="304.58011"
   viewBox="0 0 310.60804 304.58012"
   xmlns="http://www.w3.org/2000/svg"
   xmlns:svg="http://www.w3.org/2000/svg">
  <defs
     id="defs1" />
  <g
     id="g1"
     transform="translate(-1080.2956,-28.12934)">
    <g
       id="group-R5">
      <g
         id="g337"
         transform="translate(-29.785566,-6.6190147)">
        <g
           id="g341"
           transform="translate(-3.3095073,34.749827)">
          <path
             id="path169"
             d="m 9619.39,8601.25 c 21.62,-24.97 5.8,-93.81 8.65,-128.84 4.11,-50.59 7.71,-100.93 14.39,-151.3 5.85,-44.12 19.12,-78.65 32.32,-118.37 3.11,-9.37 15.84,-43.69 11.62,-53.17 -5.83,-13.06 -43.29,-22.39 -55.41,-25.23 -45.91,-10.78 -104.41,-16.45 -152.1,-11.52 -19.39,2.01 -27.85,1.91 -34.56,18.43 -5.44,13.38 -1.58,34.65 -0.06,48.39 3.5,31.49 6.54,63.99 4.72,96.77 -2.26,40.53 -13.59,80.76 -18.44,121.46 -3.58,30.13 -10.7,61.07 -16.18,91.04 -2.36,12.96 -3.86,46.63 -13.82,54.74 l 218.87,57.6"
             style="fill:#44aad5;fill-opacity:1;fill-rule:nonzero;stroke:none"
             transform="matrix(0.13333333,0,0,-0.13333333,0,1370.08)" />
          <path
             id="path170"
             d="m 10194,8720.71 c 12.6,-44.5 46.3,-56.97 72.9,-89.09 31.6,-38.27 57.6,-91.6 73.9,-138.23 22,-62.82 27.7,-129.46 10,-192.74 -7.9,-28.57 -16.6,-66.75 -37.4,-89.44 -20,-21.8 -44,-11.89 -69.9,-1.17 -33.5,13.86 -100,32.25 -118.9,65.67 -17.7,31.28 24.4,67.41 34.6,97.36 22.1,65.44 -48.6,133.27 -82.7,182.64 l 117.5,165"
             style="fill:#44aad5;fill-opacity:1;fill-rule:nonzero;stroke:none"
             transform="matrix(0.13333333,0,0,-0.13333333,0,1370.08)" />
          <path
             id="path171"
             d="m 9131.52,8433.21 c -23.25,9.97 -50.95,13.19 -80.46,11.39 29.37,0.39 59.23,-3.59 90.26,-15.32 26.97,-8.88 52.98,-22.44 77.54,-41.71 28.91,-15.11 58.47,-28.87 88.58,-41.2 150.55,-61.68 314.74,-87.89 478.93,-70.42 145.33,16.77 339.13,97.57 419.23,212.4 82.1,117.76 104.2,235.11 110.9,367.26 -12,-58.95 -32,-116.64 -65,-172.4 -230,-380 -719.98,-400 -1119.98,-250"
             style="fill:#c1ebf8;fill-opacity:1;fill-rule:nonzero;stroke:none"
             transform="matrix(0.13333333,0,0,-0.13333333,0,1370.08)" />
          <path
             id="path172"
             d="m 10371.5,9933.21 c 19.5,-87.78 105.6,-156.3 193.4,-141.06 85.5,75.25 142.4,241.55 101.6,318.55 -83.8,167.7 -257,203.6 -452.6,125.4 l -28,-16.8 c -162.1,-106.2 -97.7,-467.71 -97.7,-640.99 0,-100.61 -4.6,-181.33 -22.4,-307.42 -11,-78.28 -7.4,-165.15 -46.5,-232.23 -83.88,25.97 -168.99,46.61 -254.43,56.3 0,-0.03 -0.01,-0.05 -0.01,-0.07 -0.15,-11.99 10.08,-17.96 8.42,-31.67 -0.8,-6.57 -6.36,-11.72 -7.16,-17.96 -0.7,-5.37 1.71,-9.23 2.11,-15.38 0.8,-12.38 -0.87,-23.47 -3.37,-34.5 0.39,8.9 -4.71,13.82 -8.63,20.89 -14.8,1.12 -15.92,18.12 -14.7,28.61 1.87,16.03 7.68,18.96 -4.63,33.79 -6.78,8.17 -13.46,10.57 -14.22,20.06 -19.69,1.36 -39.38,2.08 -59.07,2.12 -3.39,-6.96 -8.36,-13.21 -7.13,-22.68 1.59,-12.17 8.61,-13.48 3.29,-26.66 -3.79,-9.38 -15.1,-14.17 -19.5,-23.72 -5.83,-12.65 -0.07,-22.62 5.04,-34.57 3.98,-9.31 8.03,-18.23 4.54,-28.25 -6.3,-18.05 -16.27,-13.96 -23.28,0 -8.94,17.78 -0.65,43.6 -23.09,53.53 -1.01,19.41 12.35,31.49 11.37,49.71 -0.81,15.18 -14,21.48 -22.19,29.74 -9.76,-0.86 -19.51,-1.9 -29.26,-3.16 -21.77,-2.8 -43.52,-6.65 -65.23,-11.54 1.21,-8.98 8.13,-14.12 11.31,-23.37 6.7,-19.53 -0.87,-16.15 -12.59,-24.55 -23.94,-17.16 8.01,-48.99 -7.13,-58.78 -15.37,-9.93 -15.01,8.49 -16.57,18.33 -1.82,11.42 -7.39,18.83 -8.34,30 -1.08,12.71 7.09,20 -1.58,31.71 -4.1,5.53 -14.02,8.86 -18.79,14.02 -252.7,-63.94 -390.56,-292.93 -602.96,-447.4 -50,-40 -100,-70 -157.43,-98.08 -35.34,-12.61 -73.1,-18.3 -113.63,-14.69 -41.44,2.77 -78.94,17.77 -98.94,52.77 -12.5,27.5 -16.87,54.38 -15.91,80.76 3.1,41.49 17.54,83.48 35.12,120.98 7.62,16.26 33.14,44.51 8.11,51.54 -54.04,15.17 -109.85,-110.34 -124.8,-141.58 -10.02,-26.7 -17.52,-54.2 -22.52,-81.7 -10,-90 50,-190 130,-230 26.25,-11.25 52.19,-17.97 77.91,-21.17 25.72,-3.2 51.23,-2.89 76.62,-0.08 29.25,1.88 58.06,7.61 86.69,15.45 24.8,9.3 51.02,19.55 78.18,29.64 27.16,10.09 55.27,20.02 83.88,28.61 56.75,11.49 110.63,28.19 166.26,28.94 29.51,1.8 57.21,-1.42 80.46,-11.39 400,-150 889.98,-130 1119.98,250 33,55.76 53,113.45 65,172.4 0.3,6.12 0.6,12.24 0.9,18.42 11.2,245.93 -52.5,653.42 -20.8,953.98 68.3,-69.8 115,-93.83 204.4,-71.46 7.1,1.69 14.1,4.16 21.1,7.27 -77.1,14.71 -143.5,92 -150.6,169.39"
             style="fill:#66cdec;fill-opacity:1;fill-rule:nonzero;stroke:none"
             transform="matrix(0.13333333,0,0,-0.13333333,0,1370.08)" />
          <path
             id="path173"
             d="m 10371.5,9933.21 c 7.1,-77.39 73.5,-154.68 150.6,-169.39 14.8,6.64 29.2,16.32 42.8,28.33 -87.8,-15.24 -173.9,53.28 -193.4,141.06"
             style="fill:#44aad5;fill-opacity:1;fill-rule:nonzero;stroke:none"
             transform="matrix(0.13333333,0,0,-0.13333333,0,1370.08)" />
          <path
             id="path174"
             d="m 9614.85,9068.21 c 0.98,-18.22 -12.38,-30.3 -11.37,-49.71 22.44,-9.93 14.15,-35.75 23.09,-53.53 7.01,-13.96 16.98,-18.05 23.28,0 3.49,10.02 -0.56,18.94 -4.54,28.25 -5.11,11.95 -10.87,21.92 -5.04,34.57 4.4,9.55 15.71,14.34 19.5,23.72 5.32,13.18 -1.7,14.49 -3.29,26.66 -1.23,9.47 3.74,15.72 7.13,22.68 -23.66,0.05 -47.31,-0.81 -70.95,-2.9 8.19,-8.26 21.38,-14.56 22.19,-29.74"
             style="fill:#44aad5;fill-opacity:1;fill-rule:nonzero;stroke:none"
             transform="matrix(0.13333333,0,0,-0.13333333,0,1370.08)" />
          <path
             id="path175"
             d="m 9736.9,9078.67 c 12.31,-14.83 6.5,-17.76 4.63,-33.79 -1.22,-10.49 -0.1,-27.49 14.7,-28.61 3.92,-7.07 9.02,-11.99 8.63,-20.89 2.5,11.03 4.17,22.12 3.37,34.5 -0.4,6.15 -2.81,10.01 -2.11,15.38 0.8,6.24 6.36,11.39 7.16,17.96 1.66,13.71 -8.57,19.68 -8.42,31.67 0,0.02 0.01,0.04 0.01,0.07 -14.06,1.59 -28.12,2.79 -42.19,3.77 0.76,-9.49 7.44,-11.89 14.22,-20.06"
             style="fill:#44aad5;fill-opacity:1;fill-rule:nonzero;stroke:none"
             transform="matrix(0.13333333,0,0,-0.13333333,0,1370.08)" />
          <path
             id="path176"
             d="m 9463.27,9056.59 c 8.67,-11.71 0.5,-19 1.58,-31.71 0.95,-11.17 6.52,-18.58 8.34,-30 1.56,-9.84 1.2,-28.26 16.57,-18.33 15.14,9.79 -16.81,41.62 7.13,58.78 11.72,8.4 19.29,5.02 12.59,24.55 -3.18,9.25 -10.1,14.39 -11.31,23.37 -8.72,-1.96 -17.43,-4.05 -26.13,-6.37 -9.35,-1.86 -18.51,-3.99 -27.56,-6.27 4.77,-5.16 14.69,-8.49 18.79,-14.02"
             style="fill:#44aad5;fill-opacity:1;fill-rule:nonzero;stroke:none"
             transform="matrix(0.13333333,0,0,-0.13333333,0,1370.08)" />
          <path
             id="path177"
             d="m 10564.3,9911.28 c 0,6.61 -5.3,11.97 -11.9,11.97 -6.7,0 -12,-5.36 -12,-11.97 0,-6.62 5.3,-11.97 12,-11.97 6.6,0 11.9,5.35 11.9,11.97"
             style="fill:#4b9062;fill-opacity:1;fill-rule:nonzero;stroke:none"
             transform="matrix(0.13333333,0,0,-0.13333333,0,1370.08)" />
          <path
             id="path178"
             d="m 10513,9902.95 c 0,6.6 -5.4,11.97 -12,11.97 -6.6,0 -12,-5.37 -12,-11.97 0,-6.61 5.4,-11.97 12,-11.97 6.6,0 12,5.36 12,11.97"
             style="fill:#4b9062;fill-opacity:1;fill-rule:nonzero;stroke:none"
             transform="matrix(0.13333333,0,0,-0.13333333,0,1370.08)" />
          <path
             id="path179"
             d="m 10245.5,10120.5 c 0,0 30.3,-14.6 66,-15.5 20.5,-0.5 38.4,80.9 -9.3,93.2 -49.3,12.7 -70.4,-56.6 -56.7,-77.7"
             style="fill:#ffffff;fill-opacity:1;fill-rule:nonzero;stroke:none"
             transform="matrix(0.13333333,0,0,-0.13333333,0,1370.08)" />
          <path
             id="path180"
             d="m 10259.9,10118.5 c 0,0 24.3,-11.6 52.8,-12.4 16.5,-0.4 30.7,64.7 -7.5,74.6 -39.4,10.2 -56.3,-45.4 -45.3,-62.2"
             style="fill:#2e1816;fill-opacity:1;fill-rule:nonzero;stroke:none"
             transform="matrix(0.13333333,0,0,-0.13333333,0,1370.08)" />
          <path
             id="path181"
             d="m 10319.3,10149.9 c -1.3,-5.2 -7,-8.4 -12.5,-6.9 -5.6,1.4 -9,6.8 -7.6,12.1 1.4,5.3 7,8.4 12.5,7 5.6,-1.4 9,-6.9 7.6,-12.2"
             style="fill:#ffffff;fill-opacity:1;fill-rule:nonzero;stroke:none"
             transform="matrix(0.13333333,0,0,-0.13333333,0,1370.08)" />
          <path
             id="path182"
             d="m 10081.5,8523.21 c 23.5,-27.1 6.3,-101.79 9.4,-139.81 4.5,-54.89 8.4,-109.51 15.6,-164.17 6.4,-47.87 20.8,-85.35 35.1,-128.45 3.4,-10.16 17.2,-47.41 12.6,-57.69 -6.3,-14.17 -47,-24.3 -60.1,-27.39 -49.8,-11.69 -113.32,-17.84 -165.07,-12.49 -21.04,2.18 -30.22,2.07 -37.51,20 -5.9,14.51 -1.71,37.6 -0.06,52.5 3.79,34.18 7.1,69.44 5.12,105.01 -2.45,43.98 -14.75,87.64 -20,131.81 -3.89,32.69 -11.62,66.27 -17.56,98.79 -2.57,14.06 -4.19,50.6 -15,59.39 l 237.48,62.5"
             style="fill:#66cdec;fill-opacity:1;fill-rule:nonzero;stroke:none"
             transform="matrix(0.13333333,0,0,-0.13333333,0,1370.08)" />
          <path
             id="path183"
             d="m 9367.71,8434.83 c 0,-86.61 -0.95,-170.28 17.49,-255.45 7.77,-35.9 19.25,-86.92 10.06,-124.55 -13.49,-55.25 -133.64,-36.69 -174.98,-30.55 -16.28,2.41 -45.24,2.86 -55.75,17.38 -11.04,15.26 -8.29,66.49 -9.38,85.8 -3.9,68.91 -4.77,137.42 -4.94,206.82 -0.1,40.19 22.77,102.46 7.5,138.05 l 210,-37.5"
             style="fill:#66cdec;fill-opacity:1;fill-rule:nonzero;stroke:none"
             transform="matrix(0.13333333,0,0,-0.13333333,0,1370.08)" />
          <path
             id="path184"
             d="m 9273.02,8918.15 c 15.11,-10.08 35.19,6.35 43.5,17.88 3.12,4.32 8.6,19.05 4.87,23.94 -10.24,13.14 -33.61,6.83 -43.22,-2.34 -10.03,-9.59 -20.21,-29.43 -5.15,-39.48"
             style="fill:#9ddef0;fill-opacity:1;fill-rule:nonzero;stroke:none"
             transform="matrix(0.13333333,0,0,-0.13333333,0,1370.08)" />
          <path
             id="path185"
             d="m 9353.61,8928.52 c 8.84,-5.9 20.58,3.72 25.45,10.47 1.83,2.53 5.03,11.15 2.85,14.01 -5.99,7.69 -19.67,3.99 -25.29,-1.37 -5.88,-5.61 -11.83,-17.22 -3.01,-23.11"
             style="fill:#9ddef0;fill-opacity:1;fill-rule:nonzero;stroke:none"
             transform="matrix(0.13333333,0,0,-0.13333333,0,1370.08)" />
          <path
             id="path186"
             d="m 9262.15,8871.02 c 8.84,-5.9 20.59,3.72 25.46,10.47 1.82,2.53 5.03,11.15 2.85,14.01 -6,7.69 -19.67,3.99 -25.29,-1.37 -5.88,-5.61 -11.83,-17.22 -3.02,-23.11"
             style="fill:#9ddef0;fill-opacity:1;fill-rule:nonzero;stroke:none"
             transform="matrix(0.13333333,0,0,-0.13333333,0,1370.08)" />
        </g>
      </g>
    </g>
  </g>
</svg>
