<?xml version="1.0" encoding="UTF-8" standalone="no"?>
<!-- Created with Inkscape (http://www.inkscape.org/) -->

<svg
   version="1.1"
   id="svg1"
   width="424.74561"
   height="257.72278"
   viewBox="0 0 424.74561 257.72279"
   xmlns="http://www.w3.org/2000/svg"
   xmlns:svg="http://www.w3.org/2000/svg">
  <defs
     id="defs1" />
  <g
     id="g1"
     transform="translate(-26.475967,-1037.0764)">
    <g
       id="g335"
       transform="translate(16.547537,-28.130813)">
      <g
         id="g340"
         transform="translate(-9.928522,16.547537)">
        <path
           id="path102"
           d="m 327.0517,1247.3194 c 5.34667,3.4802 7.51334,14.3214 9.90667,19.799 2.27467,5.2094 4.19467,11.0266 7.244,15.8042 2.492,3.9036 4.616,6.5453 8.72667,8.2516 4.84666,2.0118 10.94266,2.7828 16.20266,2.2948 10.21067,-0.9439 21.064,-7.7 29.032,-13.9163 4.88667,-3.8119 6.81333,-9.4719 4.42933,-15.164 -2.35733,-5.6292 -5.336,-10.7276 -8.36,-15.9797 -3.236,-5.6198 -6.868,-10.7 -6.892,-17.4334 l -60.28933,16.3438"
           style="fill:#70c52d;fill-opacity:1;fill-rule:nonzero;stroke:none;stroke-width:0.133333" />
        <path
           id="path103"
           d="m 158.03571,1208.822 c -15.97974,-11.6222 -21.79067,-30.5076 -39.22347,-40.6769 -7.28586,-4.968 -14.8016,-9.0973 -22.505731,-12.6107 -10.357733,-6.5666 -21.720266,-11.54 -32.997866,-16.476 -7.295333,-3.192 -13.826533,-7.7053 -20.691733,-11.792 -6.968133,-4.1493 -14.256746,-9.3133 -17.962466,-16.7706 -2.261467,-4.552 -6.441147,-17.4214 -4.114067,-22.3574 3.167707,-6.72 14.150533,0.02 19.475466,1.0734 8.474,1.676 16.933867,2.9173 25.6652,2.9066 19.093199,-0.021 37.658267,-6.3266 55.203597,-12.4826 15.1896,-5.328 28.9948,-13.8054 43.88573,-19.836 13.652,-5.528 26.43867,-9.1534 40.92134,-9.3147 21.288,-0.2373 40.54,-3.872 61.75066,-0.1747 18.62667,3.248 37.22667,13.1027 51.016,26.288 9.98,9.5427 16.95067,20.8267 23.28,32.9494 2.40133,4.6013 5.65733,6.172 9.25333,9.6426 3.72,3.5907 6.62,7.9414 10.252,11.6187 6.64534,6.7253 13.276,17.8427 16.384,26.7373 4.08267,11.6867 3.52667,24.216 5.26267,36.3187 0.468,3.2587 0.552,6.3213 0.33466,9.2667 -11.32666,8.5413 -24.55333,14.4064 -37.78666,14.4064 -62.46667,-1.4522 -127.84,27.6026 -187.40266,-8.7162"
           style="fill:#a7db55;fill-opacity:1;fill-rule:nonzero;stroke:none;stroke-width:0.133333" />
        <path
           id="path104"
           d="m 118.81224,1168.1451 c 17.4328,10.1693 23.24373,29.0547 39.22347,40.6769 59.56266,36.3188 124.93599,7.264 187.40266,8.7162 13.23333,0 26.46,-5.8651 37.78666,-14.4064 -0.59733,8.0705 -3.52799,15.2209 -7.55199,22.8569 -6.92534,13.1417 -14.044,17.1297 -27.30534,22.9177 -6.41733,2.8011 -12.26133,4.8068 -19.196,5.8172 -7.68533,1.1198 -15.32666,1.6402 -22.892,3.0068 -7.48933,1.3531 -15.44933,-0.748 -22.924,-1.6349 -9.044,-1.0729 -17.99066,0.6229 -27.12266,-1.2704 -4.29334,-0.8895 -7.50667,-1.5145 -11.87733,-1.3427 -9.73467,0.3798 -19.31334,-0.3666 -28.69334,-3.7468 -22.45733,-8.0933 -49.73333,-17.8162 -66.34693,-35.8172 -5.2912,-5.7333 -7.85267,-13.0813 -12.27613,-19.4026 -7.11614,-10.1694 -17.10107,-19.2614 -26.10307,-27.756 -4.53133,-4.276 -9.45733,-7.9454 -14.629731,-11.2254 7.704131,3.5134 15.219871,7.6427 22.505731,12.6107"
           style="fill:#91bf32;fill-opacity:1;fill-rule:nonzero;stroke:none;stroke-width:0.133333" />
        <path
           id="path105"
           d="m 225.34637,1214.1491 c 4.15067,4.3573 4.104,11.2584 7.91334,15.9932 4.744,5.9 11.69466,9.7172 11.79333,18.4027 0.12667,11.0016 1.772,21.8521 1.736,33.0145 -0.0213,6.5172 -3.86,16.712 3.70266,19.7923 10.608,4.3161 22.49867,5.076 33.704,4.4358 8.02,-0.453 16.54134,1.5334 24.33467,0 6.50933,-1.2801 7.916,-3.8744 6.616,-9.8812 -0.96,-4.436 -1.53867,-8.8641 -1.088,-13.7204 0.54,-5.8181 1.68933,-11.7197 2.48133,-17.5118 0.78267,-5.7158 0.77334,-11.5975 1.66934,-17.261 0.80533,-5.0922 3.45466,-9.5032 4.95466,-14.3786 l -97.81733,-18.8855"
           style="fill:#70c52d;fill-opacity:1;fill-rule:nonzero;stroke:none;stroke-width:0.133333" />
        <path
           id="path106"
           d="m 318.5637,1075.8971 c -0.0467,-0.3667 0.0387,-0.672 -0.0547,-1.036 -5.356,-1.1387 -10.25334,-4.1947 -15.92534,-5.5 -5.94666,-1.3693 -13.364,0.1093 -18.88666,2.2587 -7.31467,2.8466 -12.76134,8.4666 -17.44267,14.456 -4.61467,5.9053 -7.716,12.2146 -11.96667,18.24 -4.61066,6.536 -11.39599,11.8693 -15.63599,18.876 -4.32934,7.156 -7.32,18.0506 -6.108,26.7146 0.62666,4.4787 1.61066,8.8094 2.52666,13.1294 0.91734,4.3213 1.76534,8.6306 2.12134,13.068 0.36533,4.2413 1.03466,8.584 2.008,12.9186 3.78933,18.921 14.50933,38.2158 31.42933,48.3251 3.384,2.0229 7.01466,3.6761 10.87866,4.8683 42.14,13.0932 68.28934,-34.8468 95.89067,-59.5427 7.264,-5.8107 2.90666,-17.4333 0.11333,-26.2747 -1.97333,-5.5453 -3.34933,-11.2733 -5.35866,-17.008 -2.94267,-8.3946 -5.59867,-17.3786 -11.372,-24.268 -4.736,-5.6533 -10.364,-10.56 -15.69734,-15.612 -3.708,-3.5106 -6.25066,-8.272 -10.17733,-11.5653 -2.07467,-1.7387 -4.07733,-2.6893 -5.9,-4.784 -2.088,-2.3987 -2.90933,-4.292 -5.72,-5.7307 -1.74133,-0.8906 -4.38133,-0.812 -5.81333,-2.26 l 1.09066,0.7267"
           style="fill:#91bf32;fill-opacity:1;fill-rule:nonzero;stroke:none;stroke-width:0.133333" />
        <path
           id="path107"
           d="m 247.78504,1124.3478 c -5.872,6.936 -11.192,12.24 -10.46267,22.468 1.19867,16.816 14.912,31.9093 14.33067,48.448 -0.27734,7.924 -3.864,13.0828 2.62133,20.5812 6.51733,7.5349 14.312,4.1786 21.59333,9.4172 7.256,5.2202 7.83867,12.5598 17.408,15.7322 10.62,3.5198 16.29734,0.021 25.228,-5.7844 14.232,-9.2505 26.168,-2.0729 41.59867,-1.1573 18.65867,1.1068 24.05733,-13.8093 38.76133,-20.1728 14.152,-6.1256 39.49467,3.7891 37.772,-21.5228 -0.74133,-10.8853 -4.51867,-11.3027 2.104,-22.0627 4.48133,-7.2813 7.732,-12.9706 4.652,-22.5866 -2.628,-8.2094 -10.684,-11.6987 -12.612,-20.2387 -1.928,-8.5413 1.20667,-16.8253 -2.88667,-25.2307 -4.036,-8.288 -11.236,-11.6413 -20.33466,-12.54 -11.82267,-1.1693 -13.352,0.244 -20.58,-9.6626 -9.23333,-12.656 -25.53467,-22.348 -41.42667,-12.6134 -6.40533,3.924 -10.79733,12.5734 -19.36933,11.6947 -6.66667,-0.684 -13.272,-6.356 -21.28267,-6.852 -13.86133,-0.8587 -25.988,4.0147 -34.116,15.428 -4.152,5.828 -5.176,12.4893 -8.23866,18.604 -3.55067,7.0907 -9.672,12.0427 -14.76,18.0507"
           style="fill:#a7db55;fill-opacity:1;fill-rule:nonzero;stroke:none;stroke-width:0.133333" />
        <path
           id="path108"
           d="m 334.1797,1232.4288 c -7.33066,0 -12.35066,1.3963 -18.484,4.3026 4.928,-3.1599 1.54134,-16.9438 0.044,-21.3438 -3.17733,-9.3372 -8.208,-18.0798 -11.63333,-27.3758 -5.25867,-14.272 -13.60533,-29.108 -8.15067,-44.4894 2.72667,-7.6853 7.452,-14.384 14.33334,-18.6933 5.53733,-3.4653 11.36533,-5.0107 17.00933,-7.4387 14.088,-6.0586 27.9,-9.9866 43.66267,-9.9053 7.34533,0.039 15.86533,2.6747 22.69999,5.1653 7.92667,2.8907 14.48534,7.856 18.24934,15.5454 3.62533,7.4026 5.33333,17.2373 6.52133,25.156 1.58267,10.552 5.36267,20.7413 3.36667,31.588 -0.34,1.8426 -0.98,3.536 -1.26934,5.3546 -0.46666,2.928 0.30267,6.1814 -0.276,9.0907 -0.75866,3.8133 -3.41733,7.3387 -6.25466,10.1624 -3.77867,3.7631 -6.716,8.0428 -11.44134,10.8163 -6.844,4.0145 -12.91466,6.8145 -20.8,8.3437 -10.90666,2.1135 -22.26133,5.9239 -33.45066,5.1921 -2.12133,-0.1401 -4.64,-1.224 -6.86267,-1.5521 -1.968,-0.2891 -6.66133,0.3079 -7.264,-0.2812 v 0.3625"
           style="fill:#91bf32;fill-opacity:1;fill-rule:nonzero;stroke:none;stroke-width:0.133333" />
        <path
           id="path109"
           d="m 302.05304,1149.2544 c -1.47067,8.1707 2.208,16.0587 4.54133,23.7334 3.04667,10.0293 6.636,20.008 9.872,29.952 1.81467,5.577 4.19333,11.0385 6.12,16.5224 1.66,4.7254 3.35467,7.4238 7.01333,10.9734 6.38134,6.1895 13.13467,8.4266 21.79867,9.6734 4.29867,0.6198 8.75467,1.7709 13.068,2.1256 3.944,0.3238 8.136,-0.3683 12.05733,-0.7256 7.59467,-0.6932 15.73333,-2.9744 22.50667,1.4505 2.28,1.4907 5.09866,2.7923 7.748,3.6989 2.06533,0.7079 4.06933,0.4215 5.94533,-0.788 2.51067,-1.6186 5.84933,-3.4786 7.924,-5.639 5.86933,-6.1078 4.71867,-16.8276 3.61733,-24.4 -1.21466,-8.3386 -5.53333,-16.0436 -6.48933,-24.4423 -0.50933,-4.4667 -0.15333,-9.0627 -0.592,-13.564 -0.48667,-4.988 -1.288,-10.0147 -1.58133,-15.0013 -0.61467,-10.46 -5.56667,-22.892 -11.14534,-31.5507 -4.19333,-6.5107 -12.19466,-12.1187 -19.216,-15.3373 -5.00933,-2.296 -12.27199,-4.6427 -17.80799,-4.0627 -5.292,0.5533 -9.92134,0.3827 -15.02667,1.8467 -4.82933,1.3853 -9.86667,1.9106 -14.636,3.5266 -2.71733,0.9214 -4.93333,2.3 -7.73333,2.9347 -2.82134,0.6387 -4.684,2.096 -6.99467,3.8907 -7.97067,6.1893 -19.096,14.668 -20.98933,25.1826"
           style="fill:#a7db55;fill-opacity:1;fill-rule:nonzero;stroke:none;stroke-width:0.133333" />
        <path
           id="path110"
           d="m 423.30103,1240.4918 c 4.74667,-2.8776 7.184,-9.7427 8.51734,-14.763 2.53733,-9.5546 2.97333,-19.1744 -0.10134,-28.7704 -0.94266,-2.94 -2.536,-9.1093 -6.31866,-9.7586 -4.16,-0.7147 -7.51734,6.3746 -9.04,9.1906 -2.29867,4.252 -7.272,5.3747 -11.65067,6.936 -5.12667,1.8267 -10.63067,4.5774 -12.83333,9.8596 -1.13334,2.7163 -1.03467,6.123 -0.61067,9.0428 0.7,4.823 3.29333,8.0296 6.98933,10.964 2.60134,2.0642 4.98534,3.9828 7.32267,6.2719 3.75467,3.6776 13.368,3.6699 17.72533,1.0271"
           style="fill:#f2e0af;fill-opacity:1;fill-rule:nonzero;stroke:none;stroke-width:0.133333" />
        <path
           id="path111"
           d="m 207.17837,1218.3647 c -7.81466,8.3511 -13.04666,17.6308 -16.78133,28.4896 -1.20667,3.5079 -2.14533,7.1683 -3.16933,10.6041 -0.924,3.1054 -2.04267,6.16 -2.56134,9.46 -0.47066,2.9916 0.43467,8.1359 -0.79066,10.8864 -2.82534,6.347 -19.736,4.3323 -24.62,3.187 -9.84294,-2.3083 -21.62934,-5.287 -29.606,-11.8067 -7.48227,-6.1161 -8.4172,-11.2147 -7.06814,-20.36 1.17907,-7.9921 4.01814,-15.8776 5.45614,-23.7629 1.67506,-9.1814 1.0428,-18.5411 1.78866,-27.8811 0.32654,-4.0867 0.37187,-8.1933 0.37187,-12.3493 0,-3.6307 -1.04853,-9.7454 0.36293,-12.7134 l 76.6172,46.2463"
           style="fill:#70c52d;fill-opacity:1;fill-rule:nonzero;stroke:none;stroke-width:0.133333" />
        <path
           id="path112"
           d="m 350.99304,1175.7744 c 0,0 -6.192,2.9707 -13.48667,3.1587 -4.188,0.104 -7.83333,-16.5 1.91333,-19.016 10.056,-2.6013 14.36267,11.56 11.57334,15.8573"
           style="fill:#ffffff;fill-opacity:1;fill-rule:nonzero;stroke:none;stroke-width:0.133333" />
        <path
           id="path113"
           d="m 348.05304,1176.1824 c 0,0 -4.96,2.368 -10.792,2.524 -3.36,0.081 -6.26934,-13.204 1.53066,-15.224 8.04667,-2.0746 11.49067,9.2627 9.26134,12.7"
           style="fill:#2e1816;fill-opacity:1;fill-rule:nonzero;stroke:none;stroke-width:0.133333" />
        <path
           id="path114"
           d="m 335.9117,1169.7704 c 0.28134,1.072 1.42934,1.7134 2.56,1.4214 1.14134,-0.2947 1.836,-1.408 1.55867,-2.4827 -0.28667,-1.0827 -1.42933,-1.7133 -2.56,-1.4213 -1.14267,0.284 -1.83733,1.4 -1.55867,2.4826"
           style="fill:#ffffff;fill-opacity:1;fill-rule:nonzero;stroke:none;stroke-width:0.133333" />
        <path
           id="path115"
           d="m 412.0837,1159.4358 c 0,0 -6.192,2.9706 -13.48667,3.1586 -4.188,0.104 -7.83333,-16.5013 1.91334,-19.016 10.056,-2.6013 14.36266,11.56 11.57333,15.8574"
           style="fill:#ffffff;fill-opacity:1;fill-rule:nonzero;stroke:none;stroke-width:0.133333" />
        <path
           id="path116"
           d="m 409.1437,1159.8424 c 0,0 -4.96,2.3694 -10.79067,2.5254 -3.36133,0.081 -6.27066,-13.2054 1.52934,-15.224 8.04666,-2.0747 11.49066,9.2626 9.26133,12.6986"
           style="fill:#2e1816;fill-opacity:1;fill-rule:nonzero;stroke:none;stroke-width:0.133333" />
        <path
           id="path117"
           d="m 397.00237,1153.4318 c 0.28133,1.0706 1.42933,1.7133 2.56,1.42 1.14133,-0.2934 1.836,-1.4067 1.55866,-2.4827 -0.28666,-1.0813 -1.42933,-1.712 -2.56,-1.42 -1.14266,0.2827 -1.83733,1.4 -1.55866,2.4827"
           style="fill:#ffffff;fill-opacity:1;fill-rule:nonzero;stroke:none;stroke-width:0.133333" />
        <path
           id="path118"
           d="m 380.30503,1229.886 c -4.54133,-0.3118 -8.70399,1.571 -13.34799,0.01 -3.39467,-1.1396 -8.048,-4.8573 -8.83467,-8.2333 2.13467,4.6229 -0.35467,11.1358 5.83867,12.2186 5.09066,0.8923 10.92133,-1.7932 15.25333,-3.9948 h 1.09066"
           style="fill:#2e1816;fill-opacity:1;fill-rule:nonzero;stroke:none;stroke-width:0.133333" />
        <path
           id="path119"
           d="m 309.49304,1143.6304 c -0.77867,3 -1.888,7.896 0.948,10.164 1.992,1.592 6.904,2.4787 9.58,2.3654 4.66533,-0.196 7.26266,-2.2827 8.76133,-6.6747 1.36267,-3.996 2.00133,-10.7107 -2.048,-13.1627 -6.844,-4.1466 -15.224,-0.456 -17.24133,7.308"
           style="fill:#a7db55;fill-opacity:1;fill-rule:nonzero;stroke:none;stroke-width:0.133333" />
        <path
           id="path120"
           d="m 317.88637,1155.5131 c -13.172,-2.7267 -6.85733,-22.3027 5.24667,-19.4253 4.004,0.9506 6.66,3.9013 11.188,3.0106 7.724,-1.5213 15.244,-6.0573 17.85733,-13.3893 6.37467,2.456 3.12267,11.552 0.564,15.5613 -3.936,6.1627 -9.56667,8.988 -16.252,11.1667 -5.976,1.948 -12.09333,4.424 -18.604,3.076"
           style="fill:#f2e0af;fill-opacity:1;fill-rule:nonzero;stroke:none;stroke-width:0.133333" />
        <path
           id="path121"
           d="m 404.63703,1136.1851 c 2.524,-8.068 -3.40533,-15.4107 -9.80533,-19.0213 -2.864,-1.616 -5.17467,-3.3294 -8.53067,-3.6814 -2.90933,-0.3066 -6.176,0.4094 -8.72933,1.6787 -1.87333,0.9307 -3.85333,2.7493 -5.25733,4.3173 l 32.32266,16.7067"
           style="fill:#a7db55;fill-opacity:1;fill-rule:nonzero;stroke:none;stroke-width:0.133333" />
        <path
           id="path122"
           d="m 378.42904,1126.7424 c -0.77867,3 -1.88934,7.896 0.948,10.164 1.99199,1.592 6.90399,2.4787 9.57999,2.3654 4.66534,-0.196 7.26267,-2.2827 8.76134,-6.6747 1.36266,-3.996 2.00133,-10.7107 -2.048,-13.1627 -6.844,-4.1466 -15.224,-0.456 -17.24133,7.308"
           style="fill:#a7db55;fill-opacity:1;fill-rule:nonzero;stroke:none;stroke-width:0.133333" />
        <path
           id="path123"
           d="m 386.82103,1138.6251 c -13.17066,-2.7267 -6.85733,-22.3027 5.248,-19.4253 4.004,0.9506 6.66,3.9013 11.188,3.0106 7.72267,-1.5213 15.244,-6.0573 17.85734,-13.3893 6.37466,2.456 3.12266,11.552 0.56266,15.5613 -3.93466,6.1627 -9.56533,8.988 -16.25066,11.1667 -5.976,1.948 -12.09467,4.424 -18.60534,3.076"
           style="fill:#f2e0af;fill-opacity:1;fill-rule:nonzero;stroke:none;stroke-width:0.133333" />
        <path
           id="path124"
           d="m 171.72504,1068.6038 c -5.73867,-3.624 6.02667,-9.8014 10.07333,-7.9 4.44667,2.088 1.796,5.256 -1.43466,6.8226 -2.164,1.0494 -6.552,2.3947 -8.63867,1.0774"
           style="fill:#70c52d;fill-opacity:1;fill-rule:nonzero;stroke:none;stroke-width:0.133333" />
        <path
           id="path125"
           d="m 156.83704,1072.0064 c -2.79067,-1.7626 2.93067,-4.7653 4.89733,-3.8413 2.16267,1.016 0.87334,2.556 -0.69733,3.3173 -1.052,0.5094 -3.18533,1.164 -4.2,0.524"
           style="fill:#70c52d;fill-opacity:1;fill-rule:nonzero;stroke:none;stroke-width:0.133333" />
        <path
           id="path126"
           d="m 165.75037,1076.9171 c -4.18533,-2.6427 4.39467,-7.148 7.34667,-5.7613 3.24267,1.5226 1.30933,3.8333 -1.04667,4.976 -1.57866,0.7653 -4.77866,1.7453 -6.3,0.7853"
           style="fill:#70c52d;fill-opacity:1;fill-rule:nonzero;stroke:none;stroke-width:0.133333" />
        <path
           id="path127"
           d="m 184.11437,1074.7571 c -2.79066,-1.7613 2.93067,-4.7653 4.89734,-3.8413 2.16266,1.016 0.87466,2.556 -0.69734,3.3173 -1.052,0.5107 -3.18533,1.164 -4.2,0.524"
           style="fill:#9ebbe4;fill-opacity:1;fill-rule:nonzero;stroke:none;stroke-width:0.133333" />
        <path
           id="path128"
           d="m 306.71437,1305.2278 c 3.016,-0.387 7.47467,-1.0402 6.54667,-5.147 -0.428,-1.9009 -1.40534,-5.4333 -3.37334,-6.353 -3.31466,-1.5495 -9.036,-0.1667 -10.90533,3.0864 -1.47333,2.5641 -2.092,8.5204 1.744,9.0933 1.836,0.2667 4.13467,-0.4532 5.988,-0.6797"
           style="fill:#a7db55;fill-opacity:1;fill-rule:nonzero;stroke:none;stroke-width:0.133333" />
        <path
           id="path129"
           d="m 286.53437,1306.2808 c 3.41067,0.2267 8.468,0.4934 8.34,-4.2462 -0.0587,-2.1912 -0.36667,-6.299 -2.33733,-7.7428 -3.31734,-2.4307 -9.93067,-2.151 -12.7,1.0292 -2.184,2.5078 -4.164,8.9464 -0.056,10.4 1.96666,0.7068 4.65733,0.4136 6.75333,0.5598"
           style="fill:#a7db55;fill-opacity:1;fill-rule:nonzero;stroke:none;stroke-width:0.133333" />
        <path
           id="path130"
           d="m 267.9237,1305.5346 c 3.03334,0.2 7.532,0.4396 7.41867,-3.7776 -0.052,-1.948 -0.32647,-5.6019 -2.08,-6.8866 -2.95047,-2.1617 -8.832,-1.9134 -11.296,0.9156 -1.94133,2.2308 -3.70267,7.9615 -0.0493,9.2548 1.74933,0.6271 4.14133,0.3604 6.00666,0.4938"
           style="fill:#a7db55;fill-opacity:1;fill-rule:nonzero;stroke:none;stroke-width:0.133333" />
        <path
           id="path131"
           d="m 404.03303,1268.6262 c -1.052,-1.4531 -1.432,-2.537 -3.06,-3.537 -1.1,-0.676 -2.40933,-1.3254 -3.744,-1.1844 -3.792,0.4016 -4.79466,4.4172 -4.94266,7.5948 -0.0973,2.0922 -0.10667,4.112 0.972,5.9402 0.39466,0.6702 1.63733,2.4213 2.3,2.689 0.97333,0.3948 2.89333,-0.677 3.78266,-1.1156 1.33867,-0.6614 2.73867,-1.8818 3.57734,-3.0964 1.11066,-1.6078 3.292,-5.4145 1.47733,-7.1693 l -0.36267,-0.1213"
           style="fill:#a7db55;fill-opacity:1;fill-rule:nonzero;stroke:none;stroke-width:0.133333" />
        <path
           id="path132"
           d="m 388.41837,1286.7611 c 1.49466,-1.4787 3.68133,-3.1547 3.05466,-5.5188 -0.50666,-1.9109 -1.89333,-3.6989 -3.77733,-4.3864 -3.028,-1.1041 -6.85867,-0.063 -7.27333,3.4172 -0.236,1.9828 -0.0347,4.3463 0.49066,6.2401 0.324,1.1635 0.524,3.2104 1.81334,3.2984 1.74666,0.1188 4.48933,-1.8614 5.692,-3.0505"
           style="fill:#a7db55;fill-opacity:1;fill-rule:nonzero;stroke:none;stroke-width:0.133333" />
        <path
           id="path133"
           d="m 166.96637,1281.7903 c 2.092,0.8443 4.22267,0.4093 6.36667,0.1145 1.52533,-0.2104 3.272,-0.073 4.71067,-0.6932 2.892,-1.2469 3.34266,-4.4281 2.65066,-7.2041 -0.60666,-2.436 -2.46,-5.1172 -5.04533,-5.4428 -3.44267,-0.4301 -11.04933,12.2709 -8.68267,13.2256"
           style="fill:#a7db55;fill-opacity:1;fill-rule:nonzero;stroke:none;stroke-width:0.133333" />
        <path
           id="path134"
           d="m 159.85171,1280.9142 c 2.79066,0.1521 3.85333,-3.9615 3.99466,-6.125 0.17334,-2.6656 -1.02933,-6.5136 -3.136,-8.375 -3.30666,-2.9214 -8.45746,0.124 -10.4372,3.06 -1.28386,1.9025 -3.7344,6.9025 -2.0464,8.9014 0.45534,0.5386 3.34854,1.0828 4.06054,1.3199 0.87906,0.2932 1.94173,0.6683 2.8524,0.8145 1.388,0.2214 3.12,0.1418 4.53066,0.04 0.54134,-0.039 0.93334,-0.01 1.452,-0.1812 l -1.27066,0.5452"
           style="fill:#a7db55;fill-opacity:1;fill-rule:nonzero;stroke:none;stroke-width:0.133333" />
        <path
           id="path135"
           d="m 76.319576,1136.9158 c 1.818667,-0.5827 1.542133,-3.1094 0.441067,-4.2467 -0.902,-0.932 -2.402534,-1.0987 -3.630134,-1.0333 -2.180266,0.1133 -5.188533,1.6586 -2.440133,3.692 1.224,0.9053 4.0516,2.0933 5.6292,1.588"
           style="fill:#70c52d;fill-opacity:1;fill-rule:nonzero;stroke:none;stroke-width:0.133333" />
        <path
           id="path136"
           d="m 94.261175,1134.3438 c 0.236534,-4.168 -5.786933,-7.764 -9.049466,-4.676 -2.9604,2.8026 -0.9588,6.7693 2.5032,7.7733 3.1192,0.904 6.3224,0.84 6.546266,-3.0973"
           style="fill:#70c52d;fill-opacity:1;fill-rule:nonzero;stroke:none;stroke-width:0.133333" />
        <path
           id="path137"
           d="m 89.163309,1146.0318 c -1.6688,-3.5267 3.1552,-5.772 5.385866,-2.8507 1.3292,1.74 0.678134,3.3773 -1.391066,4.04 -1.560933,0.5 -3.209333,0.4707 -3.9948,-1.1893"
           style="fill:#70c52d;fill-opacity:1;fill-rule:nonzero;stroke:none;stroke-width:0.133333" />
        <path
           id="path138"
           d="m 257.32104,1252.721 c -2.45467,1.2308 -5.15067,-1.6959 -4.16667,-4.1375 0.92533,-2.2975 5.5,-2.6145 6.21467,0.048 0.456,1.7 -0.524,3.327 -2.048,4.0896"
           style="fill:#a7db55;fill-opacity:1;fill-rule:nonzero;stroke:none;stroke-width:0.133333" />
      </g>
    </g>
  </g>
</svg>
