<?xml version="1.0" encoding="UTF-8" standalone="no"?>
<!-- Created with Inkscape (http://www.inkscape.org/) -->

<svg
   version="1.1"
   id="svg1"
   width="423.93494"
   height="171.85571"
   viewBox="0 0 423.93494 171.85572"
   xmlns="http://www.w3.org/2000/svg"
   xmlns:svg="http://www.w3.org/2000/svg">
  <defs
     id="defs1" />
  <g
     id="g1"
     transform="translate(-88.4464,-365.11641)">
    <g
       id="group-R5">
      <g
         id="g339"
         transform="translate(-51.297364,23.166551)">
        <g
           id="g342"
           transform="translate(-6.6190147,-14.892783)">
          <path
             id="path139"
             d="m 362.5017,439.29915 c -30.84133,-8.49866 -75.28266,-30.81066 -105.02266,-41.43466 -25.33467,-8.5 -73.79906,-11.688 -93.62573,8.49733 46.26173,-6.37333 111.24973,25.5 143.1924,55.25067 l 55.45599,-22.31334"
             style="fill:#f46cad;fill-opacity:1;fill-rule:nonzero;stroke:none;stroke-width:0.133333" />
          <path
             id="path140"
             d="m 270.69637,423.25115 c 12.116,3.18667 28.63867,17.11067 39.652,23.48534 18.72667,9.56266 37.452,14.876 57.27867,21.25066 3.81733,1.22667 7.54,2.72934 11.13466,4.47467 13.33467,6.47467 26.00667,16.664 31.908,30.20933 1.768,4.05733 2.83467,8.40533 3.064,12.804 0.15334,2.94667 0.56534,9.64933 -1.47066,12.088 -2.80534,3.36267 -7.34267,-1.60667 -8.99734,-3.776 -2.67333,-3.50667 -6.14933,-5.188 -10.52666,-6.16933 -4.11067,-0.92134 -8.172,-2.024 -12.29334,-2.93734 -11.44933,-2.53866 -23.412,-1.53466 -34.84933,-4.19866 -31.94133,-7.436 -72.69733,-28.68267 -91.42133,-55.24533 l 16.52133,-31.98534"
             style="fill:#f798be;fill-opacity:1;fill-rule:nonzero;stroke:none;stroke-width:0.133333" />
          <path
             id="path141"
             d="m 383.0217,515.28982 c 4.18667,-0.70534 -42.932,-26.056 -61.65733,-34.55333 -8.812,-4.25067 -41.836,-20.90267 -41.836,-0.71467 0,0 54.51867,43.50266 103.49333,35.268"
             style="fill:#fabad9;fill-opacity:1;fill-rule:nonzero;stroke:none;stroke-width:0.133333" />
          <path
             id="path142"
             d="m 307.49371,375.49649 c -7.00134,8.144 -12.324,16.884 -18.744,25.41866 -9.13467,12.144 -15.61467,23.61734 -22.06534,37.10534 -5.544,11.59066 -7.392,24.34933 -21.12133,28.96266 -10.96533,3.684 -21.43067,7.00667 -31.74133,12.704 -14.348,7.93067 -25.908,15.87733 -41.7532,18.98933 -1.9532,-10.04666 12.7176,-14.27199 19.4652,-19.63999 5.85333,-4.65867 16.484,-15.872 15.43333,-23.82267 -9.01067,0.044 -22.34853,10.564 -30.25373,15.03067 -9.85373,5.56666 -19.39587,9.148 -30.32147,8.22266 -0.79893,-7.24 15.12187,-21.26933 19.65,-27.09733 6.44534,-8.296 13.96987,-15.24667 23.3172,-20.55333 20.40533,-11.584 41.88133,-18.22267 62.28,-30.45467 12.71867,-7.62667 26.148,-13.992 37.304,-23.89867 6.94,-6.164 14.152,-14.08666 22.888,-17.864 3.032,-1.31066 7.328,-3.46 9.052,0.584 2.13333,5.00667 -10.376,12.808 -13.38933,16.31334"
             style="fill:#f798be;fill-opacity:1;fill-rule:nonzero;stroke:none;stroke-width:0.133333" />
          <path
             id="path143"
             d="m 302.64037,455.73115 c 22.028,-2.12533 49.56533,-27.624 62.78267,-42.49733 16.524,-20.188 26.43466,-32.93733 55.07333,-36.124 52.872,-5.312 105.744,1.064 149.8,28.68533 -35.24534,4.25067 -67.18667,1.06267 -101.332,14.87467 -27.53867,10.62667 -69.39467,32.936 -83.71467,57.37333 l -82.60933,-22.312"
             style="fill:#f46cad;fill-opacity:1;fill-rule:nonzero;stroke:none;stroke-width:0.133333" />
          <path
             id="path144"
             d="m 244.15637,435.52582 c 0,0 2.69467,-2.564 4.15067,-6.18133 0.83467,-2.07734 -7.1,-6.88534 -10.22133,-2.46 -3.22267,4.564 3.32133,9.26533 6.07066,8.64133"
             style="fill:#ffffff;fill-opacity:1;fill-rule:nonzero;stroke:none;stroke-width:0.133333" />
          <path
             id="path145"
             d="m 244.91504,434.12715 c 0,0 2.15333,-2.056 3.32,-4.94533 0.66933,-1.668 -5.68133,-5.51067 -8.18267,-1.97067 -2.576,3.65334 2.664,7.41467 4.86267,6.916"
             style="fill:#2e1816;fill-opacity:1;fill-rule:nonzero;stroke:none;stroke-width:0.133333" />
          <path
             id="path146"
             d="m 243.85104,426.90049 c 0.504,0.33333 0.62267,1.02266 0.26,1.536 -0.36533,0.51866 -1.072,0.66533 -1.57867,0.33333 -0.508,-0.33733 -0.62266,-1.02267 -0.26,-1.536 0.36,-0.52133 1.06934,-0.668 1.57867,-0.33333"
             style="fill:#ffffff;fill-opacity:1;fill-rule:nonzero;stroke:none;stroke-width:0.133333" />
          <path
             id="path147"
             d="m 408.6577,386.06449 c 48.62534,-16.12267 102.99067,-3.42 150.32533,20.372 3.73867,-0.316 7.504,-0.67734 11.31467,-1.13734 -44.05733,-27.62133 -96.92933,-33.996 -149.80133,-28.684 -28.63867,3.18534 -38.54933,15.936 -55.07333,36.12267 -13.17334,14.82533 -42.828,40.75733 -64.82,43.028 0.0133,0.032 2.28133,-0.49067 2.296,-0.46 l 16.108,6.30667 c 0.70133,-0.29334 4.892,-1.61067 5.57067,-1.93734 36.46933,-13.68 46.33999,-61.09733 84.07999,-73.61066"
             style="fill:#f798be;fill-opacity:1;fill-rule:nonzero;stroke:none;stroke-width:0.133333" />
        </g>
      </g>
    </g>
  </g>
</svg>
