<?xml version="1.0" encoding="UTF-8" standalone="no"?>
<!-- Created with Inkscape (http://www.inkscape.org/) -->

<svg
   version="1.1"
   id="svg1"
   width="486.92514"
   height="245.53119"
   viewBox="0 0 486.92515 245.5312"
   xmlns="http://www.w3.org/2000/svg"
   xmlns:svg="http://www.w3.org/2000/svg">
  <defs
     id="defs1" />
  <g
     id="g1"
     transform="translate(-18.349237,-661.06491)">
    <g
       id="group-R5">
      <g
         id="g334"
         transform="translate(-16.547536,13.238029)">
        <path
           id="path148"
           d="m 2141.25,4898.83 c 0,0 123.87,218.94 77.05,286.01 -31.89,45.66 -62.71,92.14 -97.22,135.91 -26.55,33.68 -59.18,80.91 -102.95,93.05 -34.51,9.57 -75.34,-5.38 -108.9,-13.12 -50.83,-11.71 -72.93,-54.17 -103.23,-93.38 -37.11,-48.02 -86.73,-108.34 -97.5,-170.05 -14.54,-83.41 138.29,-288.73 138.29,-288.73 l 294.46,50.31"
           style="fill:#bd672e;fill-opacity:1;fill-rule:nonzero;stroke:none"
           transform="matrix(0.13333333,0,0,-0.13333333,0,1370.08)" />
        <path
           id="path149"
           d="m 1690.85,4831.12 c 0,0 12.69,216.23 -48.94,250.31 -57.07,31.55 -119.28,77.89 -186.72,85.9 -42.94,5.1 -63.81,7.43 -96.95,-21.62 -21.23,-18.6 -42.72,-39.69 -59.56,-62.43 -16.83,-22.73 -18.48,-45.37 -23.93,-73.58 -9.36,-48.49 -23.1,-109.58 -8.87,-158.45 20.42,-69.99 216.47,-170.72 216.47,-170.72 l 208.5,150.59"
           style="fill:#bd672e;fill-opacity:1;fill-rule:nonzero;stroke:none"
           transform="matrix(0.13333333,0,0,-0.13333333,0,1370.08)" />
        <path
           id="path150"
           d="m 2582.31,4589.15 c 0,0 65.84,143.91 117.3,144.79 78.33,1.38 200.92,9.16 231.14,-41.34 15.86,-26.5 -30.14,-197.74 -67.26,-235.94 -37.11,-38.19 -198.12,-36.09 -198.12,-36.09 l -83.06,168.58"
           style="fill:#bd672e;fill-opacity:1;fill-rule:nonzero;stroke:none"
           transform="matrix(0.13333333,0,0,-0.13333333,0,1370.08)" />
        <path
           id="path151"
           d="m 991.656,3894.97 c 0,0 -143.289,67.16 -143.672,118.64 -0.664,78.33 -7.293,201.01 43.457,230.74 26.664,15.61 197.479,-31.97 235.309,-69.44 37.85,-37.48 34.26,-198.47 34.26,-198.47 l -169.354,-81.47"
           style="fill:#bd672e;fill-opacity:1;fill-rule:nonzero;stroke:none"
           transform="matrix(0.13333333,0,0,-0.13333333,0,1370.08)" />
        <path
           id="path152"
           d="m 2312.69,4885.84 c 0,0 -50.24,210.7 4.5,255.01 45.59,36.91 97.47,98.42 155.54,114.56 34.31,9.54 96.74,9.98 131.7,-0.45 44.87,-13.39 61.76,-59.8 78.25,-99.17 22.81,-54.47 51.5,-115.28 44.94,-175.91 -7.84,-72.48 -183.3,-205.9 -183.3,-205.9 l -231.63,111.86"
           style="fill:#bd672e;fill-opacity:1;fill-rule:nonzero;stroke:none"
           transform="matrix(0.13333333,0,0,-0.13333333,0,1370.08)" />
        <path
           id="path153"
           d="m 1369.82,4576.19 c -78.14,22.35 -140.1,80.17 -213.24,113.29 -41.21,18.67 -97.41,-5.85 -135.63,-26.09 -33.977,-17.99 -71.411,-51 -81.286,-90.15 -12.68,-50.28 27.399,-101.27 36.227,-148.76 11.273,-60.65 46.619,-60.61 98.519,-77.76 33.15,-10.95 65.01,-12.02 99.24,-17.38 41.65,-6.51 87.06,-44.04 130.78,-24.4 l 65.39,271.25"
           style="fill:#bd672e;fill-opacity:1;fill-rule:nonzero;stroke:none"
           transform="matrix(0.13333333,0,0,-0.13333333,0,1370.08)" />
        <path
           id="path154"
           d="m 3339.62,4755.8 c 89.68,116.16 341.48,305.6 522.33,-16.63 120.44,-214.59 24.81,-558.99 -227.6,-325.01 C 3489.68,3840.24 2547.44,3976.92 2064.27,3922.2 1581.1,3867.49 853.809,3571.69 425.555,3863.4 c -68.77,42.7 -125.961,104.18 -152.785,181.51 -11.879,34.25 -24.696,102.1 22.628,114.87 51.286,13.84 90.149,-65.38 123.395,-93.05 52.625,-43.8 113.355,-77.66 177.062,-102.41 123.629,-48.04 268.071,-66.64 396.547,-26.64 273.128,85.03 219.448,556.09 396.118,766.83 188.72,211.79 540.18,376.93 826.08,316.69 409.09,-73.8 327.47,-263.84 626.12,-469.36 482.03,-347.95 328.65,-79.41 498.9,203.96 v 0"
           style="fill:#f7954a;fill-opacity:1;fill-rule:nonzero;stroke:none"
           transform="matrix(0.13333333,0,0,-0.13333333,0,1370.08)" />
        <path
           id="path155"
           d="m 3650.79,4399.66 c 0,0 -73.34,55.43 -99.94,80.53 -56.39,-191 -187.22,-282.01 -352.79,-375.87 -145.2,-82.93 -381.36,-77.21 -552.11,-87.13 -176.8,-10.27 -215.33,4.57 -391.13,-7.84 -154.61,-10.57 -324.81,-6.06 -473.48,-49.65 -172.32,-51.76 -231.45,-87.57 -411.71,-118.67 -197.89,-38.77 -274.71,-79.82 -471.056,-66.61 -27.511,0.64 -344.578,19.8 -380.027,36.62 0,0 130.683,-252.19 1076.713,-25.31 0,0 256.27,46.74 1013.82,64.58 757.58,17.83 928.51,310.64 1041.71,549.35"
           style="fill:#f8ac79;fill-opacity:1;fill-rule:nonzero;stroke:none"
           transform="matrix(0.13333333,0,0,-0.13333333,0,1370.08)" />
        <path
           id="path156"
           d="m 1803.26,4884.41 c 0.87,-9.87 13.89,-16.8 29.09,-15.46 15.2,1.34 26.82,10.43 25.95,20.31 -0.87,9.87 -13.9,16.8 -29.1,15.46 -15.2,-1.34 -26.81,-10.43 -25.94,-20.31"
           style="fill:#f8ac79;fill-opacity:1;fill-rule:nonzero;stroke:none"
           transform="matrix(0.13333333,0,0,-0.13333333,0,1370.08)" />
        <path
           id="path157"
           d="m 1625,4718.03 c 0.87,-9.87 13.89,-16.8 29.09,-15.46 15.2,1.34 26.82,10.43 25.95,20.31 -0.87,9.87 -13.9,16.8 -29.1,15.46 -15.2,-1.34 -26.8,-10.43 -25.94,-20.31"
           style="fill:#f8ac79;fill-opacity:1;fill-rule:nonzero;stroke:none"
           transform="matrix(0.13333333,0,0,-0.13333333,0,1370.08)" />
        <path
           id="path158"
           d="m 1855.94,4813.71 c 1.15,-13.08 18.39,-22.26 38.53,-20.48 20.14,1.77 35.54,13.81 34.39,26.9 -1.15,13.08 -18.42,22.26 -38.56,20.49 -20.14,-1.78 -35.52,-13.82 -34.36,-26.91"
           style="fill:#f8ac79;fill-opacity:1;fill-rule:nonzero;stroke:none"
           transform="matrix(0.13333333,0,0,-0.13333333,0,1370.08)" />
        <path
           id="path159"
           d="m 1658.59,4796.34 c 2.11,-23.95 33.69,-40.74 70.54,-37.5 36.88,3.24 65.04,25.3 62.93,49.24 -2.1,23.97 -33.68,40.76 -70.56,37.51 -36.85,-3.24 -65.01,-25.29 -62.91,-49.25"
           style="fill:#f8ac79;fill-opacity:1;fill-rule:nonzero;stroke:none"
           transform="matrix(0.13333333,0,0,-0.13333333,0,1370.08)" />
        <path
           id="path160"
           d="m 3463.7,4804.62 c 0.5,-5.69 8,-9.69 16.77,-8.92 8.76,0.78 15.46,6.02 14.96,11.71 -0.5,5.7 -8.01,9.69 -16.78,8.92 -8.76,-0.77 -15.45,-6.01 -14.95,-11.71"
           style="fill:#f8ac79;fill-opacity:1;fill-rule:nonzero;stroke:none"
           transform="matrix(0.13333333,0,0,-0.13333333,0,1370.08)" />
        <path
           id="path161"
           d="m 3360.91,4708.68 c 0.5,-5.7 8,-9.69 16.77,-8.92 8.76,0.77 15.46,6.02 14.96,11.71 -0.5,5.7 -8.01,9.69 -16.78,8.92 -8.76,-0.77 -15.46,-6.01 -14.95,-11.71"
           style="fill:#f8ac79;fill-opacity:1;fill-rule:nonzero;stroke:none"
           transform="matrix(0.13333333,0,0,-0.13333333,0,1370.08)" />
        <path
           id="path162"
           d="m 3494.07,4763.85 c 0.66,-7.54 10.61,-12.83 22.22,-11.81 11.62,1.02 20.49,7.97 19.83,15.51 -0.66,7.55 -10.62,12.84 -22.23,11.82 -11.61,-1.03 -20.48,-7.97 -19.82,-15.52"
           style="fill:#f8ac79;fill-opacity:1;fill-rule:nonzero;stroke:none"
           transform="matrix(0.13333333,0,0,-0.13333333,0,1370.08)" />
        <path
           id="path163"
           d="m 3380.27,4753.83 c 1.22,-13.8 19.43,-23.49 40.68,-21.62 21.26,1.87 37.5,14.59 36.29,28.4 -1.22,13.81 -19.43,23.5 -40.69,21.63 -21.25,-1.87 -37.49,-14.59 -36.28,-28.41"
           style="fill:#f8ac79;fill-opacity:1;fill-rule:nonzero;stroke:none"
           transform="matrix(0.13333333,0,0,-0.13333333,0,1370.08)" />
        <path
           id="path164"
           d="m 3581.18,4786.04 c 0,0 29.38,-14.1 64,-14.99 19.88,-0.5 37.18,78.3 -9.08,90.24 -47.72,12.35 -68.16,-54.86 -54.92,-75.25"
           style="fill:#ffffff;fill-opacity:1;fill-rule:nonzero;stroke:none"
           transform="matrix(0.13333333,0,0,-0.13333333,0,1370.08)" />
        <path
           id="path165"
           d="m 3595.13,4784.1 c 0,0 23.54,-11.24 51.21,-11.98 15.95,-0.39 29.76,62.67 -7.26,72.26 -38.18,9.84 -54.53,-43.97 -43.95,-60.28"
           style="fill:#2e1816;fill-opacity:1;fill-rule:nonzero;stroke:none"
           transform="matrix(0.13333333,0,0,-0.13333333,0,1370.08)" />
        <path
           id="path166"
           d="m 3652.75,4814.53 c -1.33,-5.08 -6.78,-8.13 -12.15,-6.74 -5.42,1.4 -8.71,6.68 -7.4,11.78 1.36,5.14 6.79,8.13 12.15,6.74 5.43,-1.34 8.73,-6.64 7.4,-11.78"
           style="fill:#ffffff;fill-opacity:1;fill-rule:nonzero;stroke:none"
           transform="matrix(0.13333333,0,0,-0.13333333,0,1370.08)" />
        <path
           id="path167"
           d="m 2957.65,4144.32 c 25.63,-30.3 -6.45,-98.72 -7.93,-135.73 -2.13,-53.43 -4.94,-106.51 -3.54,-160.24 1.22,-47.05 14.01,-85.63 25.91,-129.58 2.81,-10.37 14.9,-48.61 7.7,-57.62 -9.94,-12.42 -62.39,-14.62 -79.34,-15.15 -64.2,-2 -144.74,3.82 -208.95,18.51 -26.1,5.97 -37.65,7.57 -44.27,26.1 -5.36,14.99 3.15,36.34 7.33,50.32 9.58,32.06 18.7,65.25 21.23,99.7 3.12,42.6 -6.16,86.72 -6.53,130.02 -0.27,32.06 -5.24,65.66 -8.11,97.93 -1.24,13.95 1.88,49.27 -10.46,59.69 l 306.96,16.05"
           style="fill:#f7954a;fill-opacity:1;fill-rule:nonzero;stroke:none"
           transform="matrix(0.13333333,0,0,-0.13333333,0,1370.08)" />
        <path
           id="path168"
           d="m 1692.9,3980.87 c 0,-83.91 -1.19,-164.96 21.99,-247.48 9.78,-34.77 24.2,-84.2 12.65,-120.66 -16.96,-53.52 -168.02,-35.53 -220,-29.59 -20.47,2.34 -56.87,2.77 -70.08,16.84 -13.89,14.78 -10.43,64.41 -11.8,83.12 -4.9,66.75 -5.99,133.13 -6.21,200.35 -0.13,38.93 28.63,99.26 9.43,133.74 l 264.02,-36.32"
           style="fill:#f7954a;fill-opacity:1;fill-rule:nonzero;stroke:none"
           transform="matrix(0.13333333,0,0,-0.13333333,0,1370.08)" />
      </g>
    </g>
  </g>
</svg>
