<?xml version="1.0" encoding="UTF-8" standalone="no"?>
<!-- Created with Inkscape (http://www.inkscape.org/) -->

<svg
   version="1.1"
   id="svg1"
   width="404.38556"
   height="217.67596"
   viewBox="0 0 404.38557 217.67597"
   xmlns="http://www.w3.org/2000/svg"
   xmlns:svg="http://www.w3.org/2000/svg">
  <defs
     id="defs1" />
  <g
     id="g1"
     transform="translate(-579.37956,-693.62632)">
    <g
       id="group-R5">
      <g
         id="g338"
         transform="translate(-18.20229,6.6190147)">
        <path
           id="path85"
           d="m 835.06453,846.76598 c 2.524,8.42267 -1.72134,16.2 -3.58267,24.12667 -0.83733,3.56933 -4.716,11.12133 -3.43867,14.84133 1.29467,3.77333 6.33467,2.928 9.73867,3.108 4.356,0.23067 8.26667,1.34667 12.57333,1.55867 3.724,0.184 7.256,-0.164 10.83334,-0.788 4.94,-0.86267 4.90533,-1.78534 4.65466,-7.00534 -0.36533,-7.59333 -1.208,-15.532 -1.94,-23.11466 -0.32133,-3.32 -1.39733,-6.46534 -1.56533,-9.83334 -0.0933,-1.88 0.60933,-4.636 0.0173,-6.39866 -0.21866,-0.65067 -0.45066,-0.76134 -0.79733,-1.16934 l -26.49333,4.67467"
           style="fill:#6d5cb3;fill-opacity:1;fill-rule:nonzero;stroke:none;stroke-width:0.133333" />
        <path
           id="path86"
           d="m 716.92186,819.65665 c -6.41066,0.98533 -13.86533,5.84933 -19.83333,8.38 -3.32133,1.408 -7.09067,1.48266 -10.11067,3.37866 -6.14133,3.85334 -2.332,15.42534 0.13467,21.24267 2.52933,5.968 7.93333,16.02667 15.3,16.26933 4.5,0.148 4.12667,-2.688 7.016,-6.148 2.66,-3.184 5.99733,-4.71066 9.69333,-6.60266 7.816,-4.004 19.928,-10.292 29.04134,-9.23867 l -31.24134,-27.28133"
           style="fill:#6d5cb3;fill-opacity:1;fill-rule:nonzero;stroke:none;stroke-width:0.133333" />
        <path
           id="path87"
           d="m 715.91253,746.21798 c 13.176,5.012 22.54267,-12.14933 28.02267,-21.124 15.81733,9.77334 34.22799,-9.84 40.23599,-23.11333 1.556,6.08267 14.61734,3.01333 18.78667,1.45867 7.08533,-2.64267 13.45467,-8.62667 14.75333,-16.18533 6.604,5.46933 14.94,9.56799 23.97334,10.47333 5.392,0.54 15.688,0.516 20.21866,-2.49734 2.464,-1.63866 2.752,-4.48533 3.59734,-6.36799 1.10666,5.30266 8.64133,12.14799 12.72933,15.24799 6.02,4.56534 13.99466,6.352 21.708,5.964 -6.86134,14.61734 2.46133,37.88667 14.432,46.79467 -7.14134,10.812 -5.4,23.976 -0.34934,34.932 2.28,4.94533 4.99867,10.23467 8.312,14.49333 2.99467,3.85067 7.34134,6.83067 9.22,11.22 l -215.63999,-71.296"
           style="fill:#9485ca;fill-opacity:1;fill-rule:nonzero;stroke:none;stroke-width:0.133333" />
        <path
           id="path88"
           d="m 789.83786,756.15265 c -0.276,-0.23333 -0.484,0.26 -0.62,-0.27067 2.19467,-4.37866 0.49867,-10.76533 -0.27333,-15.45733 -0.892,-5.42267 -1.54534,-10.93733 -2.256,-16.39867 -0.99734,-7.66266 -2.40267,-15.30666 -3.27867,-23.09866 5.828,6.936 7.45867,13.98666 9.64133,23.01733 1.13734,4.70533 2.37467,9.39733 3.88,14.1 1.11067,3.46533 1.95067,6.972 3.12534,10.42933 1.05866,3.11334 1.59333,7.25867 3.22266,10.016 l -13.44133,-2.33733"
           style="fill:#6d5cb3;fill-opacity:1;fill-rule:nonzero;stroke:none;stroke-width:0.133333" />
        <path
           id="path89"
           d="m 821.39519,744.56198 c 0.44134,-1.59733 -0.22933,-3.51066 -0.37466,-5.088 -0.19467,-2.09066 -0.304,-4.23466 -0.40934,-6.33066 -0.16133,-3.216 -0.33333,-6.408 -0.65066,-9.62 -0.568,-5.75467 -1.75867,-11.45867 -2.07734,-17.224 -0.20266,-3.67067 -1.25733,-7.28 -0.74933,-10.92267 0.27733,-1.99467 -0.008,-3.952 0.0733,-5.94266 0.0387,-0.97734 0.196,-1.57067 0.50534,-2.42667 0.49733,0.348 0.624,1.192 0.884,1.74533 0.41866,0.888 0.93466,1.704 1.26666,2.632 1.07734,3.00933 0.55734,6.38133 1.824,9.32933 1.99867,4.64934 2.49467,9.94267 3.38534,14.892 0.91333,5.076 1.756,10.16667 2.78,15.216 0.88266,4.356 1.624,8.85867 2.69733,13.05867 l -9.15467,0.68133"
           style="fill:#6d5cb3;fill-opacity:1;fill-rule:nonzero;stroke:none;stroke-width:0.133333" />
        <path
           id="path90"
           d="m 854.70453,741.64065 c -0.47467,-0.74267 0.34133,-2.68 0.48266,-3.59867 0.42134,-2.744 0.73334,-5.45866 1.38667,-8.164 0.46533,-1.92666 0.67867,-3.852 1.032,-5.792 0.372,-2.03866 1.32267,-3.92 1.55733,-5.99066 0.16667,-1.46134 0.57067,-2.86267 0.73067,-4.336 0.16533,-1.52667 0.15333,-3.04534 0.38667,-4.576 0.316,-2.07334 0.66533,-4.18534 1.14,-6.21067 0.232,-0.984 0.792,-1.84133 0.97866,-2.85067 0.152,-0.82133 0.116,-1.59866 0.31734,-2.41066 0.256,-1.036 0.41733,-2.10267 0.73066,-3.11467 0.288,-0.93067 0.57867,-1.74667 0.924,-2.62533 0.31467,-0.79867 0.168,-1.75733 0.46134,-2.53867 0.11066,-0.296 0.27066,-0.58666 0.48933,-0.79066 0.51467,1.42666 0.35733,3.29066 0.508,4.88266 0.3,3.16 -0.15733,6.14133 -0.31333,9.35333 -0.228,4.73067 0.0307,9.43067 -0.856,14.11067 -0.54934,2.908 -0.83334,5.87333 -1.46,8.77733 -0.84,3.89067 -2.396,7.70134 -2.72534,11.68 -0.19466,2.35734 -0.22933,5.664 -1.09466,7.79734 l -4.676,-3.60267"
           style="fill:#6d5cb3;fill-opacity:1;fill-rule:nonzero;stroke:none;stroke-width:0.133333" />
        <path
           id="path91"
           d="m 872.82186,750.11398 c 0.588,-2.52266 2.98933,-5.11466 4.17467,-7.504 2.09066,-4.21333 4.18933,-8.436 6.268,-12.66 1.50666,-3.06133 3.21066,-6.40533 5.55866,-8.86133 0.9,-0.94 1.46667,-2.05867 2.304,-3.04667 0.84,-0.988 1.80133,-1.92133 2.56533,-2.972 1.41734,-1.94666 2.88134,-3.54666 4.93467,-4.812 1.17733,-0.72533 1.41067,-0.076 0.49333,0.996 -1.43066,1.67334 -3.21466,3.496 -4.1,5.544 -2.66666,6.172 -6.67866,11.71734 -9.45199,17.89734 -1.10267,2.45466 -2.556,4.712 -3.82934,7.07866 -1.25066,2.324 -2.928,4.47867 -4.036,6.86667 -0.33066,0.71333 -1.37466,4.36 -2.15466,4.68667 l -2.72667,-3.21334"
           style="fill:#6d5cb3;fill-opacity:1;fill-rule:nonzero;stroke:none;stroke-width:0.133333" />
        <path
           id="path92"
           d="m 886.45653,763.84732 c 0.29866,-0.57467 1.244,-0.564 1.832,-0.76934 2.4,-0.84266 4.84933,-1.64266 7.21999,-2.564 3.556,-1.38133 7.19734,-2.32666 10.91067,-3.168 1.72,-0.39066 3.432,-0.82533 5.16533,-0.99866 0.5,-0.0507 1.14267,-0.22534 1.65734,-0.0973 0.45866,0.11467 0.68,0.51467 1.232,0.57867 -1.51067,1.016 -3.164,1.636 -4.89734,2.144 -2.74666,0.804 -5.51466,1.57867 -8.30133,2.26667 -3.72667,0.92133 -7.09467,2.74133 -10.72666,3.89066 -2.24,0.708 -4.41734,1.49867 -6.504,2.58934 -0.956,0.49866 -2.39067,1.87866 -3.52934,1.77733 l 5.94134,-5.64933"
           style="fill:#6d5cb3;fill-opacity:1;fill-rule:nonzero;stroke:none;stroke-width:0.133333" />
        <path
           id="path93"
           d="m 754.09253,758.00332 c -0.812,-1.24134 -1.172,-3.16667 -1.72667,-4.556 -1.04533,-2.62267 -1.60933,-5.35067 -2.46666,-8.03467 -0.64534,-2.02 -1.28134,-4.02133 -1.94534,-6.01333 -0.55733,-1.676 -0.684,-3.52134 -1.172,-5.18534 -0.56666,-1.94 -1.328,-3.80133 -1.72533,-5.80133 -0.21733,-1.08933 -0.45333,-2.44933 -1.16933,-3.32 -0.46667,1.24267 -0.25334,3.03867 -0.31867,4.356 -0.152,3.05067 0.49733,6.37333 1.168,9.33733 0.768,3.388 1.432,6.67734 1.63733,10.144 0.13734,2.31334 0.57467,4.44534 1.19467,6.65734 0.36133,1.288 0.11733,2.584 0.38933,3.84666 0.0227,-0.132 -0.0533,-0.15466 -0.0987,-0.26266 l 6.23333,-1.168"
           style="fill:#6d5cb3;fill-opacity:1;fill-rule:nonzero;stroke:none;stroke-width:0.133333" />
        <path
           id="path94"
           d="m 949.66852,856.66731 h 1.16934 z m 45.972,-63.51199 c -5.79333,-0.14934 -10.744,8.04133 -16.02133,10.43866 -3.272,1.48667 -7.188,2.816 -10.86933,3.69067 -7.34,1.74533 -15.51867,2.732 -22.568,-0.10667 -8.076,-3.25333 -16.5,-1.336 -23.41467,-7.48666 -3.72533,-3.31334 -6.43733,-7.47334 -10.1,-10.83067 -4.50667,-4.132 -7.504,-6.81333 -10.23867,-12.04933 -2.55733,-4.89734 -8.13866,-8.30667 -11.56799,-12.77067 -3.32267,-4.32533 -7.54,-8.21867 -11.31867,-12.19467 -8.87733,-9.34133 -23.00267,-12.092 -35.54,-12.05333 -7.376,0.0213 -15.76133,2.288 -22.88933,3.98933 -5.43734,1.29867 -10.852,2.46134 -16.29067,3.52267 -2.71867,0.53067 -5.44533,1.036 -8.2,1.56667 -40.97066,18.96933 -77.20266,-3.23734 -112.38533,-23.228 -3.47467,-1.17867 -6.92533,-1.67867 -10.41867,-1.85067 -28.032,-1.53467 -74.78399,-14.392 -75.92533,27.28 -0.348,4.2 -0.37733,8.73067 -0.21733,13.496 1.35867,16.128 1.35867,32.49067 7.87333,47.39467 2.364,3.45066 5.768,6.13333 10.32534,7.69333 14.60399,4.99866 32.09199,3.948 47.03199,1.48 10.10534,-1.668 18.544,-6.43733 28.852,-6.93467 8.51467,-0.412 12.31734,1.26267 18.028,7.87867 5.92267,6.86133 11.89067,13.08933 17.416,19.868 9.19067,11.276 24.48267,24.53866 39.65067,25.648 24.808,1.81333 50.70133,0.40533 75.59066,-0.40134 8.93067,-0.28933 17.51867,-2.28533 26.188,-3.53466 8.02,-1.15734 16.41734,-0.984 24.528,-1.63467 12.64,-1.01333 25.176,0.92667 37.80533,0.0173 8.77867,-0.632 16.644,-4.13066 24.82,-7.04133 9.11734,-3.244 16.33734,-6.34933 23.79867,-12.568 7.42267,-6.188 17.5467,-13.452 19.864,-23.55466 0.78531,-3.42134 0.99471,-7.08667 1.73601,-10.52134 1.1267,-5.21866 2.1853,-15.004 -5.54268,-15.20266"
           style="fill:#8773bf;fill-opacity:1;fill-rule:nonzero;stroke:none;stroke-width:0.133333" />
        <path
           id="path95"
           d="m 680.30586,746.37398 c 0,0 -5.76266,-0.24133 -11.24533,-2.98133 -3.14533,-1.576 0.70667,-15.32533 8.924,-13.34267 8.48267,2.04 6.08533,14.24 2.32133,16.324"
           style="fill:#ffffff;fill-opacity:1;fill-rule:nonzero;stroke:none;stroke-width:0.133333" />
        <path
           id="path96"
           d="m 677.96586,745.51532 c 0,0 -4.612,-0.20134 -8.99733,-2.38667 -2.524,-1.26667 0.564,-12.26533 7.144,-10.684 6.784,1.63867 4.86267,11.40267 1.85333,13.07067"
           style="fill:#2e1816;fill-opacity:1;fill-rule:nonzero;stroke:none;stroke-width:0.133333" />
        <path
           id="path97"
           d="m 671.4952,735.96998 c -0.21467,0.90534 0.38266,1.83467 1.33733,2.064 0.96267,0.232 1.91733,-0.31866 2.13467,-1.22533 0.21466,-0.916 -0.38267,-1.83467 -1.33734,-2.064 -0.95866,-0.24133 -1.91466,0.31333 -2.13466,1.22533"
           style="fill:#ffffff;fill-opacity:1;fill-rule:nonzero;stroke:none;stroke-width:0.133333" />
        <path
           id="path98"
           d="m 666.8232,790.04732 c -20.10667,6.70266 -48.74533,14.45733 -66.54667,2.888 0.29867,1.908 0.64934,3.80533 1.05734,5.68933 19.55866,9.71067 47.74399,1.696 65.48933,-8.57733"
           style="fill:#6d5cb3;fill-opacity:1;fill-rule:nonzero;stroke:none;stroke-width:0.133333" />
        <path
           id="path99"
           d="m 734.61253,827.44865 c -13.00133,-9.288 -25.268,-14.87733 -39.14,-13.26667 6.04533,0.272 9.50933,2.33334 14.31333,7.89867 5.92267,6.86133 11.89067,13.08933 17.416,19.868 9.19067,11.276 24.48267,24.53866 39.65067,25.648 24.808,1.81333 50.70133,0.40533 75.59066,-0.40134 8.93067,-0.28933 17.51867,-2.28533 26.188,-3.53466 8.02,-1.15734 16.41734,-0.984 24.528,-1.63467 12.64,-1.01333 25.176,0.92667 37.80533,0.0173 3.496,-0.252 6.84667,-0.96266 10.13067,-1.90533 -1.04,0.0227 -2.08,0.036 -3.11467,0.036 -68.95733,1.16933 -141.42266,7.01333 -203.36799,-32.72533"
           style="fill:#9485ca;fill-opacity:1;fill-rule:nonzero;stroke:none;stroke-width:0.133333" />
        <path
           id="path100"
           d="m 807.46719,847.70731 c -7.624,8.56667 -20.83733,5.06534 -26.24533,15.496 -2.79067,5.38267 -5.45733,10.876 -7.41467,16.624 -1.88,5.51867 -2.004,11.26534 -3.772,16.67067 -1.012,3.096 -0.0627,7.43867 -4.26533,8.08933 -2.33467,0.36267 -5.128,-0.37066 -7.29467,-1.06266 -4.78933,-1.532 -10.50533,-1.84267 -14.99866,-3.99067 -3.29467,-1.576 -14.74267,-6.62267 -15.89467,-10.51067 -0.79466,-2.68 3.03334,-6.892 4.19867,-9.00133 2.99733,-5.42933 5.63333,-11.048 8.608,-16.488 3.43867,-6.29067 5.70933,-12.94267 4.4,-20.29467 -1.34667,-7.56533 -8.39467,-17.448 -12.90267,-23.58266 l 75.58133,28.05066"
           style="fill:#8773bf;fill-opacity:1;fill-rule:nonzero;stroke:none;stroke-width:0.133333" />
        <path
           id="path101"
           d="m 890.46853,833.35798 c -0.48534,0.23067 1.52799,7.00133 1.91999,8.96533 1.76,8.80667 4.436,17.228 7.128,25.768 1.61467,5.124 2.62667,10.456 4.276,15.50534 0.53867,1.64666 2.99334,6.61733 2.56134,8.28666 -1.08267,4.18134 -10.45867,5.584 -14.22,7.29734 -5.50133,2.50666 -9.09733,4.644 -14.988,4.69466 -4.128,0.0347 -17.02267,1.33334 -19.02267,-2.32933 -1.132,-2.07467 0.009,-8.15333 0.009,-10.528 0,-3.56533 -0.23467,-7.14933 -0.39867,-10.596 -0.35067,-7.39867 -0.40667,-15.20133 -0.38933,-22.51067 0.0107,-4.34 2.79066,-15.32933 -2.71867,-17.54 l 35.84267,-7.01333"
           style="fill:#8773bf;fill-opacity:1;fill-rule:nonzero;stroke:none;stroke-width:0.133333" />
      </g>
    </g>
  </g>
</svg>
